<svg width="230" height="230" viewBox="0 0 230 230" fill="none" xmlns="http://www.w3.org/2000/svg">
<rect width="230" height="230" fill="black"/>
<path d="M171.562 159.069C166.007 159.069 161.116 158.027 156.872 155.95C152.71 153.791 148.89 150.709 145.42 146.695L147.275 144.61C150.283 147.922 153.522 150.395 156.991 152.01C160.461 153.634 164.355 154.437 168.673 154.437C173.684 154.437 177.809 152.859 181.048 149.694C184.36 146.455 186.021 141.675 186.021 135.355C186.021 131.497 185.292 128.222 183.825 125.518C182.358 122.824 180.475 120.812 178.159 119.502C175.843 118.118 173.453 117.416 170.99 117.416C167.751 117.416 165.361 117.536 163.82 117.767C162.279 117.998 160.037 118.459 157.111 119.151L154.103 114.297L185.449 85.037H164.05C159.344 85.037 155.764 86.0428 153.291 88.0452C150.827 90.0475 149.591 93.0926 149.591 97.1804H147.275V89.66C147.275 83.4868 150.551 80.4048 157.111 80.4048H193.892V85.0278L162.888 113.947C165.896 113.172 169.366 112.793 173.296 112.793C176.378 112.793 179.774 113.448 183.474 114.759C187.175 115.995 190.45 118.302 193.311 121.698C196.162 125.011 197.592 129.56 197.592 135.345C197.592 141.519 196.125 146.372 193.2 149.916C190.349 153.459 186.953 155.858 183.022 157.085C179.091 158.396 175.271 159.051 171.571 159.051L171.562 159.069Z" fill="white"/>
<path d="M58.3445 63.1676C53.1771 63.6383 50.2059 64.0719 48.388 65.493C46.2473 67.1632 45.7398 70.2267 45.1769 76.3445C44.5955 69.996 44.0696 66.9509 41.7166 65.3177C39.8895 64.0443 36.9459 63.629 32 63.1769C37.1489 62.7063 40.1387 62.2726 41.938 60.87C44.0973 59.1814 44.6048 56.1363 45.1676 50C45.6936 55.6565 46.1642 58.6739 47.9082 60.4271C49.6522 62.1711 52.6973 62.6601 58.3353 63.1676H58.3445Z" fill="#05BEA9"/>
<path d="M50.5935 156.753C47.7422 156.753 45.583 156.403 44.1158 155.71C42.7317 154.935 41.7259 153.588 41.1076 151.66C40.4894 149.731 40.1849 146.806 40.1849 142.866V80.4048H50.5935V142.866C50.5935 146.797 51.1287 149.731 52.2083 151.66C53.2879 153.514 55.4472 154.437 58.686 154.437H61.0021V156.753H50.5935Z" fill="white"/>
<path d="M80.223 156.753H75.6V94.2829C75.6 90.5827 74.788 87.7314 73.1732 85.7198C71.6322 83.7174 68.9747 82.7116 65.1914 82.7116H64.038V80.3955H71.5584C75.1017 80.3955 78.1099 80.9768 80.5829 82.1303C83.0466 83.2837 85.252 85.0185 87.1805 87.3346L127.662 137.652V80.4047H132.285V157.907H129.968L80.223 96.0177V156.753Z" fill="white"/>
</svg>
