<svg width="15" height="15" viewBox="0 0 15 15" fill="none" xmlns="http://www.w3.org/2000/svg">
  <circle cx="7.5" cy="7.5" r="7" fill="#2775CA" />
  <path
    d="M6.3593 11.6589C6.3593 11.8111 6.2556 11.8618 6.10004 11.8618C4.18152 11.2532 2.83337 9.52875 2.83337 7.5C2.83337 5.47125 4.18152 3.74682 6.10004 3.13819C6.2556 3.08747 6.3593 3.18891 6.3593 3.34107V3.6961C6.3593 3.79754 6.30745 3.89897 6.20374 3.94969C4.70004 4.5076 3.663 5.877 3.663 7.5C3.663 9.123 4.75189 10.5431 6.20374 11.0503C6.30745 11.101 6.3593 11.2025 6.3593 11.3039V11.6589Z"
    fill="white" />
  <path
    d="M7.91481 10.391C7.91481 10.4924 7.81111 10.5938 7.7074 10.5938H7.29259C7.18888 10.5938 7.08518 10.4924 7.08518 10.391V9.78234C6.25555 9.6809 5.84074 9.22443 5.68518 8.56509C5.68518 8.46365 5.73703 8.36222 5.84074 8.36222H6.3074C6.41111 8.36222 6.46296 8.41294 6.51481 8.51437C6.61851 8.8694 6.82592 9.17372 7.5 9.17372C8.01851 9.17372 8.38148 8.92012 8.38148 8.51437C8.38148 8.10862 8.17407 7.95647 7.44814 7.85503C6.35925 7.70287 5.84074 7.39856 5.84074 6.53634C5.84074 5.877 6.35925 5.36981 7.08518 5.26838V4.65975C7.08518 4.55832 7.18888 4.45688 7.29259 4.45688H7.7074C7.81111 4.45688 7.91481 4.55832 7.91481 4.65975V5.26838C8.53703 5.36981 8.95185 5.72485 9.05555 6.28275C9.05555 6.38419 9.0037 6.48563 8.9 6.48563H8.48518C8.38148 6.48563 8.32963 6.43491 8.27777 6.33347C8.17407 5.97844 7.91481 5.82628 7.44814 5.82628C6.92963 5.82628 6.67037 6.07988 6.67037 6.43491C6.67037 6.78994 6.82592 6.99281 7.6037 7.09425C8.69259 7.24641 9.21111 7.55072 9.21111 8.41294C9.21111 9.07228 8.69259 9.63018 7.91481 9.78234V10.391Z"
    fill="white" />
  <path
    d="M8.90001 11.8618C8.74445 11.9125 8.64075 11.8111 8.64075 11.6589V11.3039C8.64075 11.2025 8.6926 11.101 8.7963 11.0503C10.3 10.4924 11.337 9.12299 11.337 7.49999C11.337 5.87699 10.2482 4.45687 8.7963 3.94968C8.6926 3.89896 8.64075 3.79753 8.64075 3.69609V3.34106C8.64075 3.1889 8.74445 3.13818 8.90001 3.13818C10.7667 3.74681 12.1667 5.47124 12.1667 7.49999C12.1667 9.52874 10.8185 11.2532 8.90001 11.8618Z"
    fill="white" />
</svg>