<svg width="58" height="18" viewBox="0 0 58 18" fill="none" xmlns="http://www.w3.org/2000/svg">
<path d="M9.93361 8.817C9.83561 9.07833 9.69561 9.30467 9.51361 9.496C9.33161 9.68267 9.11695 9.825 8.86961 9.923C8.62695 10.021 8.36095 10.07 8.07161 10.07C7.63295 10.07 7.25261 9.97433 6.93061 9.783C6.61328 9.587 6.36595 9.31167 6.18861 8.957C6.01595 8.60233 5.92961 8.18 5.92961 7.69C5.92961 7.2 6.01595 6.77767 6.18861 6.423C6.36595 6.06833 6.61328 5.79533 6.93061 5.604C7.25261 5.408 7.62828 5.31 8.05761 5.31C8.35628 5.31 8.62228 5.352 8.85561 5.436C9.08895 5.51533 9.28728 5.63667 9.45061 5.8C9.61861 5.95867 9.75161 6.15467 9.84961 6.388L9.29661 6.647C9.19395 6.381 9.04461 6.18033 8.84861 6.045C8.65728 5.905 8.40761 5.835 8.09961 5.835C7.78695 5.835 7.51161 5.90967 7.27361 6.059C7.03561 6.20367 6.84895 6.41367 6.71361 6.689C6.58295 6.96433 6.51761 7.298 6.51761 7.69C6.51761 8.07733 6.58061 8.411 6.70661 8.691C6.83261 8.96633 7.01228 9.17867 7.24561 9.328C7.47895 9.47267 7.75428 9.545 8.07161 9.545C8.37961 9.545 8.64795 9.468 8.87661 9.314C9.10528 9.15533 9.27095 8.91967 9.37361 8.607L9.93361 8.817ZM12.3524 6.43C12.6838 6.43 12.9754 6.50233 13.2274 6.647C13.4841 6.79167 13.6848 7.00167 13.8294 7.277C13.9741 7.54767 14.0464 7.872 14.0464 8.25C14.0464 8.628 13.9741 8.95467 13.8294 9.23C13.6848 9.50067 13.4841 9.70833 13.2274 9.853C12.9754 9.99767 12.6838 10.07 12.3524 10.07C12.0258 10.07 11.7341 9.99767 11.4774 9.853C11.2208 9.70833 11.0201 9.50067 10.8754 9.23C10.7308 8.95467 10.6584 8.628 10.6584 8.25C10.6584 7.872 10.7308 7.54767 10.8754 7.277C11.0201 7.00167 11.2208 6.79167 11.4774 6.647C11.7341 6.50233 12.0258 6.43 12.3524 6.43ZM12.3524 6.913C12.1144 6.913 11.9114 6.96667 11.7434 7.074C11.5754 7.18133 11.4448 7.33533 11.3514 7.536C11.2628 7.732 11.2184 7.97 11.2184 8.25C11.2184 8.52533 11.2628 8.76333 11.3514 8.964C11.4448 9.16467 11.5754 9.31867 11.7434 9.426C11.9114 9.53333 12.1144 9.587 12.3524 9.587C12.5904 9.587 12.7934 9.53333 12.9614 9.426C13.1294 9.31867 13.2578 9.16467 13.3464 8.964C13.4398 8.76333 13.4864 8.52533 13.4864 8.25C13.4864 7.97 13.4398 7.732 13.3464 7.536C13.2578 7.33533 13.1294 7.18133 12.9614 7.074C12.7934 6.96667 12.5904 6.913 12.3524 6.913ZM15.1007 10V6.5H15.5907L15.6257 7.046C15.7517 6.83133 15.915 6.675 16.1157 6.577C16.321 6.479 16.531 6.43 16.7457 6.43C16.993 6.43 17.2264 6.486 17.4457 6.598C17.665 6.71 17.833 6.88267 17.9497 7.116C18.0244 6.95733 18.1294 6.829 18.2647 6.731C18.4 6.62833 18.547 6.55367 18.7057 6.507C18.869 6.45567 19.023 6.43 19.1677 6.43C19.3917 6.43 19.604 6.47667 19.8047 6.57C20.01 6.66333 20.178 6.808 20.3087 7.004C20.4394 7.2 20.5047 7.452 20.5047 7.76V10H19.9447V7.816C19.9447 7.49867 19.8654 7.27 19.7067 7.13C19.548 6.99 19.352 6.92 19.1187 6.92C18.9367 6.92 18.7664 6.96433 18.6077 7.053C18.449 7.14167 18.3207 7.27233 18.2227 7.445C18.1294 7.61767 18.0827 7.83 18.0827 8.082V10H17.5227V7.816C17.5227 7.49867 17.4434 7.27 17.2847 7.13C17.126 6.99 16.93 6.92 16.6967 6.92C16.5427 6.92 16.384 6.962 16.2207 7.046C16.062 7.12533 15.929 7.25367 15.8217 7.431C15.7144 7.60833 15.6607 7.84167 15.6607 8.131V10H15.1007ZM22.0526 5.828C21.9266 5.828 21.8239 5.79067 21.7446 5.716C21.6699 5.63667 21.6326 5.534 21.6326 5.408C21.6326 5.282 21.6699 5.18167 21.7446 5.107C21.8239 5.02767 21.9266 4.988 22.0526 4.988C22.1786 4.988 22.2789 5.02767 22.3536 5.107C22.4329 5.18167 22.4726 5.282 22.4726 5.408C22.4726 5.534 22.4329 5.63667 22.3536 5.716C22.2789 5.79067 22.1786 5.828 22.0526 5.828ZM22.3326 6.5V10H21.7726V6.5H22.3326ZM23.632 10V6.5H24.122L24.171 7.284L24.08 7.207C24.1546 7.02033 24.255 6.871 24.381 6.759C24.507 6.64233 24.6516 6.55833 24.815 6.507C24.983 6.45567 25.1556 6.43 25.333 6.43C25.585 6.43 25.8136 6.479 26.019 6.577C26.2243 6.67033 26.3876 6.815 26.509 7.011C26.635 7.207 26.698 7.45667 26.698 7.76V10H26.138V7.956C26.138 7.56867 26.054 7.30033 25.886 7.151C25.7226 6.997 25.5196 6.92 25.277 6.92C25.109 6.92 24.941 6.95967 24.773 7.039C24.605 7.11833 24.465 7.24667 24.353 7.424C24.2456 7.60133 24.192 7.83933 24.192 8.138V10H23.632ZM30.9129 5.856L31.0389 6.353C31.0343 6.353 31.0273 6.353 31.0179 6.353C31.0086 6.353 30.9993 6.353 30.9899 6.353C30.7613 6.353 30.5839 6.39967 30.4579 6.493C30.3366 6.58167 30.2759 6.72633 30.2759 6.927L29.9329 6.752C29.9329 6.57 29.9749 6.41133 30.0589 6.276C30.1429 6.14067 30.2573 6.038 30.4019 5.968C30.5466 5.89333 30.7053 5.856 30.8779 5.856C30.8826 5.856 30.8873 5.856 30.8919 5.856C30.9013 5.856 30.9083 5.856 30.9129 5.856ZM29.8489 9.552C30.1803 9.552 30.4393 9.629 30.6259 9.783C30.8126 9.93233 30.9059 10.133 30.9059 10.385C30.9059 10.6137 30.8289 10.812 30.6749 10.98C30.5256 11.148 30.3226 11.2763 30.0659 11.365C29.8139 11.4583 29.5293 11.505 29.2119 11.505C28.6613 11.505 28.2483 11.4117 27.9729 11.225C27.7023 11.0383 27.5669 10.8143 27.5669 10.553C27.5669 10.3663 27.6276 10.1983 27.7489 10.049C27.8749 9.90433 28.0849 9.82267 28.3789 9.804L28.3299 9.909C28.1713 9.867 28.0359 9.797 27.9239 9.699C27.8166 9.59633 27.7629 9.44933 27.7629 9.258C27.7629 9.06667 27.8329 8.90333 27.9729 8.768C28.1176 8.628 28.3299 8.54167 28.6099 8.509L28.9809 8.698H28.9109C28.6823 8.72133 28.5189 8.77967 28.4209 8.873C28.3276 8.96167 28.2809 9.05967 28.2809 9.167C28.2809 9.29767 28.3276 9.39567 28.4209 9.461C28.5189 9.52167 28.6543 9.552 28.8269 9.552H29.8489ZM29.2049 11.036C29.4756 11.036 29.6973 11.008 29.8699 10.952C30.0473 10.896 30.1779 10.8237 30.2619 10.735C30.3459 10.6463 30.3879 10.5507 30.3879 10.448C30.3879 10.322 30.3366 10.2217 30.2339 10.147C30.1359 10.0723 29.9563 10.035 29.6949 10.035H28.6169C28.4676 10.035 28.3416 10.0723 28.2389 10.147C28.1363 10.2263 28.0849 10.3337 28.0849 10.469C28.0849 10.6417 28.1829 10.7793 28.3789 10.882C28.5796 10.9847 28.8549 11.036 29.2049 11.036ZM29.1559 6.43C29.4359 6.43 29.6833 6.48133 29.8979 6.584C30.1173 6.682 30.2876 6.81967 30.4089 6.997C30.5303 7.17433 30.5909 7.37967 30.5909 7.613C30.5909 7.84167 30.5303 8.047 30.4089 8.229C30.2876 8.40633 30.1173 8.54633 29.8979 8.649C29.6833 8.747 29.4359 8.796 29.1559 8.796C28.6939 8.796 28.3393 8.68633 28.0919 8.467C27.8446 8.243 27.7209 7.95833 27.7209 7.613C27.7209 7.37967 27.7816 7.17433 27.9029 6.997C28.0289 6.81967 28.1993 6.682 28.4139 6.584C28.6286 6.48133 28.8759 6.43 29.1559 6.43ZM29.1559 6.885C28.9133 6.885 28.7103 6.95267 28.5469 7.088C28.3836 7.21867 28.3019 7.39367 28.3019 7.613C28.3019 7.82767 28.3836 8.00267 28.5469 8.138C28.7103 8.27333 28.9133 8.341 29.1559 8.341C29.3986 8.341 29.6016 8.27333 29.7649 8.138C29.9283 8.00267 30.0099 7.82767 30.0099 7.613C30.0099 7.39367 29.9283 7.21867 29.7649 7.088C29.6016 6.95267 29.3986 6.885 29.1559 6.885ZM35.6663 5.31C36.0723 5.31 36.4223 5.394 36.7163 5.562C37.0103 5.72533 37.2553 5.968 37.4513 6.29L36.9823 6.654C36.8096 6.35533 36.6136 6.14533 36.3943 6.024C36.1796 5.898 35.9183 5.835 35.6103 5.835C35.3629 5.835 35.1576 5.87 34.9943 5.94C34.8356 6.01 34.7189 6.10333 34.6443 6.22C34.5696 6.332 34.5323 6.46033 34.5323 6.605C34.5323 6.76833 34.5836 6.913 34.6863 7.039C34.7889 7.16033 34.9943 7.256 35.3023 7.326L36.3033 7.55C36.7466 7.648 37.0546 7.79733 37.2273 7.998C37.4046 8.194 37.4933 8.439 37.4933 8.733C37.4933 8.99433 37.4186 9.22767 37.2693 9.433C37.1246 9.63367 36.9193 9.79 36.6533 9.902C36.3873 10.014 36.0746 10.07 35.7153 10.07C35.3793 10.07 35.0829 10.0257 34.8263 9.937C34.5743 9.84367 34.3573 9.72 34.1753 9.566C33.9933 9.412 33.8439 9.23933 33.7273 9.048L34.2173 8.649C34.3059 8.82633 34.4203 8.98267 34.5603 9.118C34.7003 9.25333 34.8683 9.35833 35.0643 9.433C35.2649 9.50767 35.4936 9.545 35.7503 9.545C35.9883 9.545 36.1936 9.517 36.3663 9.461C36.5436 9.40033 36.6789 9.314 36.7723 9.202C36.8656 9.08533 36.9123 8.94533 36.9123 8.782C36.9123 8.63267 36.8633 8.49967 36.7653 8.383C36.6673 8.26167 36.4829 8.17067 36.2123 8.11L35.1273 7.865C34.8426 7.79967 34.6116 7.711 34.4343 7.599C34.2616 7.48233 34.1356 7.347 34.0563 7.193C33.9816 7.03433 33.9443 6.864 33.9443 6.682C33.9443 6.43467 34.0119 6.20833 34.1473 6.003C34.2873 5.793 34.4856 5.625 34.7423 5.499C35.0036 5.373 35.3116 5.31 35.6663 5.31ZM40.0106 6.43C40.342 6.43 40.6336 6.50233 40.8856 6.647C41.1423 6.79167 41.343 7.00167 41.4876 7.277C41.6323 7.54767 41.7046 7.872 41.7046 8.25C41.7046 8.628 41.6323 8.95467 41.4876 9.23C41.343 9.50067 41.1423 9.70833 40.8856 9.853C40.6336 9.99767 40.342 10.07 40.0106 10.07C39.684 10.07 39.3923 9.99767 39.1356 9.853C38.879 9.70833 38.6783 9.50067 38.5336 9.23C38.389 8.95467 38.3166 8.628 38.3166 8.25C38.3166 7.872 38.389 7.54767 38.5336 7.277C38.6783 7.00167 38.879 6.79167 39.1356 6.647C39.3923 6.50233 39.684 6.43 40.0106 6.43ZM40.0106 6.913C39.7726 6.913 39.5696 6.96667 39.4016 7.074C39.2336 7.18133 39.103 7.33533 39.0096 7.536C38.921 7.732 38.8766 7.97 38.8766 8.25C38.8766 8.52533 38.921 8.76333 39.0096 8.964C39.103 9.16467 39.2336 9.31867 39.4016 9.426C39.5696 9.53333 39.7726 9.587 40.0106 9.587C40.2486 9.587 40.4516 9.53333 40.6196 9.426C40.7876 9.31867 40.916 9.16467 41.0046 8.964C41.098 8.76333 41.1446 8.52533 41.1446 8.25C41.1446 7.97 41.098 7.732 41.0046 7.536C40.916 7.33533 40.7876 7.18133 40.6196 7.074C40.4516 6.96667 40.2486 6.913 40.0106 6.913ZM44.2079 6.43C44.5392 6.43 44.8309 6.50233 45.0829 6.647C45.3396 6.79167 45.5402 7.00167 45.6849 7.277C45.8296 7.54767 45.9019 7.872 45.9019 8.25C45.9019 8.628 45.8296 8.95467 45.6849 9.23C45.5402 9.50067 45.3396 9.70833 45.0829 9.853C44.8309 9.99767 44.5392 10.07 44.2079 10.07C43.8812 10.07 43.5896 9.99767 43.3329 9.853C43.0762 9.70833 42.8756 9.50067 42.7309 9.23C42.5862 8.95467 42.5139 8.628 42.5139 8.25C42.5139 7.872 42.5862 7.54767 42.7309 7.277C42.8756 7.00167 43.0762 6.79167 43.3329 6.647C43.5896 6.50233 43.8812 6.43 44.2079 6.43ZM44.2079 6.913C43.9699 6.913 43.7669 6.96667 43.5989 7.074C43.4309 7.18133 43.3002 7.33533 43.2069 7.536C43.1182 7.732 43.0739 7.97 43.0739 8.25C43.0739 8.52533 43.1182 8.76333 43.2069 8.964C43.3002 9.16467 43.4309 9.31867 43.5989 9.426C43.7669 9.53333 43.9699 9.587 44.2079 9.587C44.4459 9.587 44.6489 9.53333 44.8169 9.426C44.9849 9.31867 45.1132 9.16467 45.2019 8.964C45.2952 8.76333 45.3419 8.52533 45.3419 8.25C45.3419 7.97 45.2952 7.732 45.2019 7.536C45.1132 7.33533 44.9849 7.18133 44.8169 7.074C44.6489 6.96667 44.4459 6.913 44.2079 6.913ZM46.9562 10V6.5H47.4462L47.4952 7.284L47.4042 7.207C47.4788 7.02033 47.5792 6.871 47.7052 6.759C47.8312 6.64233 47.9758 6.55833 48.1392 6.507C48.3072 6.45567 48.4798 6.43 48.6572 6.43C48.9092 6.43 49.1378 6.479 49.3432 6.577C49.5485 6.67033 49.7118 6.815 49.8332 7.011C49.9592 7.207 50.0222 7.45667 50.0222 7.76V10H49.4622V7.956C49.4622 7.56867 49.3782 7.30033 49.2102 7.151C49.0468 6.997 48.8438 6.92 48.6012 6.92C48.4332 6.92 48.2652 6.95967 48.0972 7.039C47.9292 7.11833 47.7892 7.24667 47.6772 7.424C47.5698 7.60133 47.5162 7.83933 47.5162 8.138V10H46.9562ZM51.8852 5.38V7.382L51.8012 8.544H51.3812L51.2972 7.382V5.38H51.8852ZM51.5912 9.16C51.7265 9.16 51.8362 9.202 51.9202 9.286C52.0042 9.37 52.0462 9.47967 52.0462 9.615C52.0462 9.75033 52.0042 9.86 51.9202 9.944C51.8362 10.028 51.7265 10.07 51.5912 10.07C51.4558 10.07 51.3462 10.028 51.2622 9.944C51.1782 9.86 51.1362 9.75033 51.1362 9.615C51.1362 9.47967 51.1782 9.37 51.2622 9.286C51.3462 9.202 51.4558 9.16 51.5912 9.16Z" fill="white"/>
<path d="M4.13477 13.837L4.3185 13.74L4.29377 13.6932L4.24963 13.6639L4.13477 13.837ZM4.193 17.0151L4.05421 16.8605L4.193 17.0151ZM9.86417 15V14.7923H9.78376L9.7243 14.8464L9.86417 15ZM1.20775 8C1.20775 4.24874 4.24874 1.20775 8 1.20775V0.792254C4.01927 0.792254 0.792254 4.01927 0.792254 8H1.20775ZM4.24963 13.6639C2.41593 12.4472 1.20775 10.3646 1.20775 8H0.792254C0.792254 10.5097 2.07512 12.7197 4.01991 14.0101L4.24963 13.6639ZM4.33179 17.1697C4.81669 16.7343 4.96465 16.1553 4.91582 15.553C4.86751 14.9572 4.62692 14.3245 4.3185 13.74L3.95104 13.934C4.24698 14.4948 4.45982 15.0702 4.50169 15.5866C4.54304 16.0966 4.41794 16.5339 4.05421 16.8605L4.33179 17.1697ZM9.7243 14.8464C8.29069 16.1517 6.52431 16.9809 5.31011 17.3146C5.00747 17.3978 4.74364 17.4489 4.53129 17.4697C4.31228 17.4911 4.17096 17.4778 4.0989 17.4522C4.06488 17.4401 4.06657 17.4324 4.07489 17.4445C4.08728 17.4626 4.08367 17.4783 4.0851 17.4717C4.09277 17.436 4.14584 17.3366 4.33179 17.1697L4.05421 16.8605C3.86148 17.0335 3.71648 17.2093 3.67887 17.3844C3.65766 17.4832 3.6696 17.5882 3.73226 17.6796C3.79085 17.765 3.87754 17.8145 3.95974 17.8437C4.12015 17.9007 4.33624 17.9063 4.57179 17.8832C4.81399 17.8595 5.10185 17.8027 5.42021 17.7152C6.69001 17.3663 8.51658 16.508 10.004 15.1536L9.7243 14.8464ZM50 14.7923H9.86417V15.2077H50V14.7923ZM56.7923 8C56.7923 11.7513 53.7513 14.7923 50 14.7923V15.2077C53.9807 15.2077 57.2077 11.9807 57.2077 8H56.7923ZM50 1.20775C53.7513 1.20775 56.7923 4.24874 56.7923 8H57.2077C57.2077 4.01927 53.9807 0.792254 50 0.792254V1.20775ZM8 1.20775H50V0.792254H8V1.20775Z" fill="url(#paint0_linear_1242_880)"/>
<defs>
<linearGradient id="paint0_linear_1242_880" x1="1" y1="9.34408" x2="55.8329" y2="5.88677" gradientUnits="userSpaceOnUse">
<stop stop-color="#00C78B"/>
<stop offset="1" stop-color="#00CDDA"/>
</linearGradient>
</defs>
</svg>
