<svg width="251" height="224" viewBox="0 0 251 224" fill="none" xmlns="http://www.w3.org/2000/svg">
  <path
    d="M54.9052 170.52V189H49.5572L43.8172 179.004L42.4172 176.26H42.3892L42.5012 179.676V189H38.2452V170.52H43.5932L49.3332 180.516L50.7332 183.26H50.7612L50.6492 179.844V170.52H54.9052ZM65.245 174.72C66.7197 174.72 68.0077 175.009 69.109 175.588C70.229 176.148 71.097 176.979 71.713 178.08C72.3477 179.163 72.665 180.469 72.665 182C72.665 183.531 72.3477 184.847 71.713 185.948C71.097 187.031 70.229 187.861 69.109 188.44C68.0077 189 66.7197 189.28 65.245 189.28C63.8077 189.28 62.529 189 61.409 188.44C60.289 187.861 59.4117 187.031 58.777 185.948C58.161 184.847 57.853 183.531 57.853 182C57.853 180.469 58.161 179.163 58.777 178.08C59.4117 176.979 60.289 176.148 61.409 175.588C62.529 175.009 63.8077 174.72 65.245 174.72ZM65.245 178.108C64.7037 178.108 64.237 178.239 63.845 178.5C63.453 178.761 63.1544 179.181 62.949 179.76C62.7437 180.339 62.641 181.085 62.641 182C62.641 182.915 62.7437 183.661 62.949 184.24C63.1544 184.8 63.453 185.22 63.845 185.5C64.237 185.761 64.7037 185.892 65.245 185.892C65.805 185.892 66.281 185.761 66.673 185.5C67.065 185.22 67.3637 184.8 67.569 184.24C67.7744 183.661 67.877 182.915 67.877 182C67.877 181.085 67.7744 180.339 67.569 179.76C67.3637 179.181 67.065 178.761 66.673 178.5C66.281 178.239 65.805 178.108 65.245 178.108ZM96.6545 194.684C95.4225 194.684 94.3398 194.479 93.4065 194.068C92.4732 193.657 91.7452 193.06 91.2225 192.276C90.6998 191.492 90.4385 190.521 90.4385 189.364C90.4385 188.991 90.4852 188.599 90.5785 188.188C90.6905 187.777 90.8585 187.376 91.0825 186.984L93.8825 186.34C93.6958 186.751 93.5558 187.124 93.4625 187.46C93.3692 187.796 93.3225 188.104 93.3225 188.384C93.3225 189.112 93.4718 189.672 93.7705 190.064C94.0692 190.475 94.4705 190.755 94.9745 190.904C95.4785 191.072 96.0478 191.156 96.6825 191.156C97.4852 191.156 98.1572 191.072 98.6985 190.904C99.2585 190.736 99.7158 190.503 100.07 190.204L100.798 193.536C100.313 193.909 99.6878 194.189 98.9225 194.376C98.1572 194.581 97.4012 194.684 96.6545 194.684ZM91.9785 170.24C93.8452 170.24 95.4505 170.623 96.7945 171.388C98.1572 172.135 99.2025 173.217 99.9305 174.636C100.658 176.055 101.022 177.763 101.022 179.76C101.022 181.757 100.658 183.465 99.9305 184.884C99.2025 186.303 98.1572 187.395 96.7945 188.16C95.4505 188.907 93.8452 189.28 91.9785 189.28C90.1118 189.28 88.4972 188.907 87.1345 188.16C85.7718 187.395 84.7265 186.303 83.9985 184.884C83.2705 183.465 82.9065 181.757 82.9065 179.76C82.9065 177.763 83.2705 176.055 83.9985 174.636C84.7265 173.217 85.7718 172.135 87.1345 171.388C88.4972 170.623 90.1118 170.24 91.9785 170.24ZM91.9785 174.02C91.0825 174.02 90.3265 174.235 89.7105 174.664C89.0945 175.093 88.6278 175.737 88.3105 176.596C87.9932 177.436 87.8345 178.491 87.8345 179.76C87.8345 181.011 87.9932 182.065 88.3105 182.924C88.6278 183.783 89.0945 184.427 89.7105 184.856C90.3265 185.285 91.0825 185.5 91.9785 185.5C92.8745 185.5 93.6212 185.285 94.2185 184.856C94.8345 184.427 95.3012 183.783 95.6185 182.924C95.9358 182.065 96.0945 181.011 96.0945 179.76C96.0945 178.491 95.9358 177.436 95.6185 176.596C95.3012 175.737 94.8345 175.093 94.2185 174.664C93.6212 174.235 92.8745 174.02 91.9785 174.02ZM108.731 189.28C107.779 189.28 106.939 189.121 106.211 188.804C105.502 188.468 104.942 187.936 104.531 187.208C104.12 186.48 103.915 185.528 103.915 184.352V175H108.675V183.232C108.675 184.128 108.852 184.753 109.207 185.108C109.562 185.463 110.066 185.64 110.719 185.64C111.055 185.64 111.372 185.584 111.671 185.472C111.97 185.341 112.231 185.155 112.455 184.912C112.679 184.651 112.847 184.324 112.959 183.932C113.09 183.521 113.155 183.045 113.155 182.504V175H117.915V189H113.659L113.519 186.368C113.071 187.357 112.446 188.095 111.643 188.58C110.84 189.047 109.87 189.28 108.731 189.28ZM128.167 189.28C126.618 189.28 125.274 188.991 124.135 188.412C123.015 187.833 122.147 187.003 121.531 185.92C120.915 184.837 120.607 183.531 120.607 182C120.607 180.469 120.915 179.163 121.531 178.08C122.147 176.997 123.006 176.167 124.107 175.588C125.227 175.009 126.506 174.72 127.943 174.72C129.418 174.72 130.668 175.009 131.695 175.588C132.74 176.148 133.534 176.932 134.075 177.94C134.616 178.929 134.887 180.068 134.887 181.356C134.887 181.692 134.878 182.028 134.859 182.364C134.84 182.7 134.812 182.98 134.775 183.204H123.687V180.656H132.675L130.407 181.524C130.407 180.404 130.202 179.545 129.791 178.948C129.399 178.351 128.783 178.052 127.943 178.052C127.346 178.052 126.832 178.192 126.403 178.472C125.992 178.752 125.675 179.191 125.451 179.788C125.246 180.385 125.143 181.151 125.143 182.084C125.143 182.999 125.264 183.745 125.507 184.324C125.75 184.884 126.095 185.295 126.543 185.556C126.991 185.799 127.532 185.92 128.167 185.92C128.876 185.92 129.436 185.78 129.847 185.5C130.276 185.22 130.594 184.828 130.799 184.324L134.607 185.584C134.346 186.387 133.888 187.068 133.235 187.628C132.6 188.169 131.835 188.58 130.939 188.86C130.062 189.14 129.138 189.28 128.167 189.28ZM143.43 189.28C142.03 189.28 140.723 189.056 139.51 188.608C138.315 188.141 137.326 187.479 136.542 186.62L138.782 183.988C139.248 184.585 139.864 185.089 140.63 185.5C141.414 185.892 142.282 186.088 143.234 186.088C143.812 186.088 144.288 186.004 144.662 185.836C145.035 185.668 145.222 185.407 145.222 185.052C145.222 184.791 145.128 184.585 144.942 184.436C144.755 184.268 144.382 184.128 143.822 184.016L141.862 183.624C140.107 183.269 138.856 182.747 138.11 182.056C137.382 181.347 137.018 180.423 137.018 179.284C137.018 178.519 137.251 177.791 137.718 177.1C138.184 176.391 138.903 175.821 139.874 175.392C140.844 174.944 142.086 174.72 143.598 174.72C145.016 174.72 146.267 174.925 147.35 175.336C148.432 175.747 149.291 176.344 149.926 177.128L147.658 179.704C147.21 179.144 146.631 178.705 145.922 178.388C145.212 178.071 144.503 177.912 143.794 177.912C143.346 177.912 142.963 177.959 142.646 178.052C142.347 178.127 142.123 178.239 141.974 178.388C141.824 178.537 141.75 178.724 141.75 178.948C141.75 179.191 141.862 179.405 142.086 179.592C142.328 179.76 142.767 179.909 143.402 180.04L145.95 180.544C147.387 180.805 148.423 181.281 149.058 181.972C149.692 182.663 150.01 183.493 150.01 184.464C150.01 185.379 149.767 186.2 149.282 186.928C148.796 187.656 148.068 188.235 147.098 188.664C146.127 189.075 144.904 189.28 143.43 189.28ZM158.331 170.548V184.016C158.331 184.688 158.49 185.173 158.807 185.472C159.143 185.752 159.601 185.892 160.179 185.892C160.627 185.892 161.01 185.845 161.327 185.752C161.663 185.64 161.962 185.481 162.223 185.276L162.727 188.216C162.261 188.552 161.673 188.813 160.963 189C160.254 189.187 159.526 189.28 158.779 189.28C157.715 189.28 156.791 189.131 156.007 188.832C155.242 188.533 154.645 188.057 154.215 187.404C153.805 186.751 153.59 185.883 153.571 184.8V171.864L158.331 170.548ZM162.503 175V178.388H151.163V175H162.503ZM188.302 170.52L181.778 182.252V189H176.962V182.252L170.438 170.52H175.422L178.026 175.588L179.398 178.668L180.798 175.588L183.402 170.52H188.302ZM194.065 189.28C192.516 189.28 191.172 188.991 190.033 188.412C188.913 187.833 188.045 187.003 187.429 185.92C186.813 184.837 186.505 183.531 186.505 182C186.505 180.469 186.813 179.163 187.429 178.08C188.045 176.997 188.904 176.167 190.005 175.588C191.125 175.009 192.404 174.72 193.841 174.72C195.316 174.72 196.567 175.009 197.593 175.588C198.639 176.148 199.432 176.932 199.973 177.94C200.515 178.929 200.785 180.068 200.785 181.356C200.785 181.692 200.776 182.028 200.757 182.364C200.739 182.7 200.711 182.98 200.673 183.204H189.585V180.656H198.573L196.305 181.524C196.305 180.404 196.1 179.545 195.689 178.948C195.297 178.351 194.681 178.052 193.841 178.052C193.244 178.052 192.731 178.192 192.301 178.472C191.891 178.752 191.573 179.191 191.349 179.788C191.144 180.385 191.041 181.151 191.041 182.084C191.041 182.999 191.163 183.745 191.405 184.324C191.648 184.884 191.993 185.295 192.441 185.556C192.889 185.799 193.431 185.92 194.065 185.92C194.775 185.92 195.335 185.78 195.745 185.5C196.175 185.22 196.492 184.828 196.697 184.324L200.505 185.584C200.244 186.387 199.787 187.068 199.133 187.628C198.499 188.169 197.733 188.58 196.837 188.86C195.96 189.14 195.036 189.28 194.065 189.28ZM209.136 170.548V184.016C209.136 184.688 209.295 185.173 209.612 185.472C209.948 185.752 210.406 185.892 210.984 185.892C211.432 185.892 211.815 185.845 212.132 185.752C212.468 185.64 212.767 185.481 213.028 185.276L213.532 188.216C213.066 188.552 212.478 188.813 211.768 189C211.059 189.187 210.331 189.28 209.584 189.28C208.52 189.28 207.596 189.131 206.812 188.832C206.047 188.533 205.45 188.057 205.02 187.404C204.61 186.751 204.395 185.883 204.376 184.8V171.864L209.136 170.548ZM213.308 175V178.388H201.968V175H213.308Z"
    fill="#1D2020" />
  <path
    d="M6.39806 219.16C5.3954 219.16 4.52606 218.941 3.79006 218.504C3.06473 218.056 2.4994 217.427 2.09406 216.616C1.6994 215.805 1.50206 214.84 1.50206 213.72C1.50206 212.6 1.71006 211.635 2.12606 210.824C2.55273 210.013 3.14473 209.389 3.90206 208.952C4.6594 208.504 5.52873 208.28 6.51006 208.28C7.5554 208.28 8.4034 208.477 9.05406 208.872C9.7154 209.267 10.2487 209.875 10.6541 210.696L9.48606 211.336C9.2514 210.728 8.87806 210.269 8.36606 209.96C7.86473 209.64 7.24606 209.48 6.51006 209.48C5.7954 209.48 5.16073 209.651 4.60606 209.992C4.06206 210.323 3.63006 210.808 3.31006 211.448C3.00073 212.077 2.84606 212.835 2.84606 213.72C2.84606 214.605 2.9794 215.368 3.24606 216.008C3.5234 216.637 3.92873 217.123 4.46206 217.464C5.00606 217.795 5.6674 217.96 6.44606 217.96C6.8834 217.96 7.28873 217.907 7.66206 217.8C8.04606 217.683 8.37673 217.512 8.65406 217.288C8.94206 217.064 9.16606 216.781 9.32606 216.44C9.48606 216.099 9.56606 215.699 9.56606 215.24V214.872H6.20606V213.672H10.7341V219H9.72606L9.66206 217.032L9.93406 217.08C9.65673 217.741 9.2194 218.253 8.62206 218.616C8.02473 218.979 7.2834 219.16 6.39806 219.16ZM16.7922 210.84C17.5495 210.84 18.2162 211.005 18.7922 211.336C19.3789 211.667 19.8375 212.147 20.1682 212.776C20.4989 213.395 20.6642 214.136 20.6642 215C20.6642 215.864 20.4989 216.611 20.1682 217.24C19.8375 217.859 19.3789 218.333 18.7922 218.664C18.2162 218.995 17.5495 219.16 16.7922 219.16C16.0455 219.16 15.3789 218.995 14.7922 218.664C14.2055 218.333 13.7469 217.859 13.4162 217.24C13.0855 216.611 12.9202 215.864 12.9202 215C12.9202 214.136 13.0855 213.395 13.4162 212.776C13.7469 212.147 14.2055 211.667 14.7922 211.336C15.3789 211.005 16.0455 210.84 16.7922 210.84ZM16.7922 211.944C16.2482 211.944 15.7842 212.067 15.4002 212.312C15.0162 212.557 14.7175 212.909 14.5042 213.368C14.3015 213.816 14.2002 214.36 14.2002 215C14.2002 215.629 14.3015 216.173 14.5042 216.632C14.7175 217.091 15.0162 217.443 15.4002 217.688C15.7842 217.933 16.2482 218.056 16.7922 218.056C17.3362 218.056 17.8002 217.933 18.1842 217.688C18.5682 217.443 18.8615 217.091 19.0642 216.632C19.2775 216.173 19.3842 215.629 19.3842 215C19.3842 214.36 19.2775 213.816 19.0642 213.368C18.8615 212.909 18.5682 212.557 18.1842 212.312C17.8002 212.067 17.3362 211.944 16.7922 211.944ZM29.1671 209.464C28.8791 209.464 28.6444 209.379 28.4631 209.208C28.2924 209.027 28.2071 208.792 28.2071 208.504C28.2071 208.216 28.2924 207.987 28.4631 207.816C28.6444 207.635 28.8791 207.544 29.1671 207.544C29.4551 207.544 29.6844 207.635 29.8551 207.816C30.0364 207.987 30.1271 208.216 30.1271 208.504C30.1271 208.792 30.0364 209.027 29.8551 209.208C29.6844 209.379 29.4551 209.464 29.1671 209.464ZM29.8071 211V219.816C29.8071 220.477 29.6791 221 29.4231 221.384C29.1671 221.768 28.8524 222.04 28.4791 222.2C28.1057 222.36 27.7377 222.44 27.3751 222.44C27.0444 222.44 26.7404 222.387 26.4631 222.28C26.1857 222.184 25.9564 222.061 25.7751 221.912L26.0471 220.696C26.1964 220.835 26.3831 220.952 26.6071 221.048C26.8311 221.144 27.0817 221.192 27.3591 221.192C27.7004 221.192 27.9777 221.08 28.1911 220.856C28.4151 220.632 28.5271 220.243 28.5271 219.688V211H29.8071ZM36.0891 210.84C36.8464 210.84 37.5131 211.005 38.0891 211.336C38.6757 211.667 39.1344 212.147 39.4651 212.776C39.7957 213.395 39.9611 214.136 39.9611 215C39.9611 215.864 39.7957 216.611 39.4651 217.24C39.1344 217.859 38.6757 218.333 38.0891 218.664C37.5131 218.995 36.8464 219.16 36.0891 219.16C35.3424 219.16 34.6757 218.995 34.0891 218.664C33.5024 218.333 33.0437 217.859 32.7131 217.24C32.3824 216.611 32.2171 215.864 32.2171 215C32.2171 214.136 32.3824 213.395 32.7131 212.776C33.0437 212.147 33.5024 211.667 34.0891 211.336C34.6757 211.005 35.3424 210.84 36.0891 210.84ZM36.0891 211.944C35.5451 211.944 35.0811 212.067 34.6971 212.312C34.3131 212.557 34.0144 212.909 33.8011 213.368C33.5984 213.816 33.4971 214.36 33.4971 215C33.4971 215.629 33.5984 216.173 33.8011 216.632C34.0144 217.091 34.3131 217.443 34.6971 217.688C35.0811 217.933 35.5451 218.056 36.0891 218.056C36.6331 218.056 37.0971 217.933 37.4811 217.688C37.8651 217.443 38.1584 217.091 38.3611 216.632C38.5744 216.173 38.6811 215.629 38.6811 215C38.6811 214.36 38.5744 213.816 38.3611 213.368C38.1584 212.909 37.8651 212.557 37.4811 212.312C37.0971 212.067 36.6331 211.944 36.0891 211.944ZM43.0108 209.464C42.7228 209.464 42.4881 209.379 42.3068 209.208C42.1361 209.027 42.0508 208.792 42.0508 208.504C42.0508 208.216 42.1361 207.987 42.3068 207.816C42.4881 207.635 42.7228 207.544 43.0108 207.544C43.2988 207.544 43.5281 207.635 43.6988 207.816C43.8801 207.987 43.9708 208.216 43.9708 208.504C43.9708 208.792 43.8801 209.027 43.6988 209.208C43.5281 209.379 43.2988 209.464 43.0108 209.464ZM43.6508 211V219H42.3708V211H43.6508ZM46.6208 219V211H47.7408L47.8528 212.792L47.6448 212.616C47.8155 212.189 48.0448 211.848 48.3328 211.592C48.6208 211.325 48.9515 211.133 49.3248 211.016C49.7088 210.899 50.1035 210.84 50.5088 210.84C51.0848 210.84 51.6075 210.952 52.0768 211.176C52.5461 211.389 52.9195 211.72 53.1968 212.168C53.4848 212.616 53.6288 213.187 53.6288 213.88V219H52.3488V214.328C52.3488 213.443 52.1568 212.829 51.7728 212.488C51.3995 212.136 50.9355 211.96 50.3808 211.96C49.9968 211.96 49.6128 212.051 49.2288 212.232C48.8448 212.413 48.5248 212.707 48.2688 213.112C48.0235 213.517 47.9008 214.061 47.9008 214.744V219H46.6208ZM63.5557 208.728V216.792C63.5557 217.187 63.6677 217.48 63.8917 217.672C64.1157 217.864 64.4037 217.96 64.7557 217.96C65.065 217.96 65.3317 217.907 65.5557 217.8C65.7797 217.693 65.9824 217.549 66.1637 217.368L66.6117 218.44C66.3664 218.664 66.073 218.84 65.7317 218.968C65.401 219.096 65.017 219.16 64.5797 219.16C64.1744 219.16 63.7957 219.091 63.4437 218.952C63.0917 218.803 62.809 218.573 62.5957 218.264C62.393 217.944 62.2864 217.528 62.2757 217.016V209.08L63.5557 208.728ZM66.4677 211V212.104H60.6757V211H66.4677ZM68.3708 219V207.32H69.6508V212.2C69.9281 211.72 70.2961 211.373 70.7548 211.16C71.2135 210.947 71.7148 210.84 72.2588 210.84C72.8348 210.84 73.3575 210.952 73.8268 211.176C74.2961 211.389 74.6695 211.72 74.9468 212.168C75.2348 212.616 75.3788 213.187 75.3788 213.88V219H74.0988V214.328C74.0988 213.443 73.9068 212.829 73.5228 212.488C73.1495 212.136 72.6855 211.96 72.1308 211.96C71.7468 211.96 71.3628 212.051 70.9788 212.232C70.5948 212.413 70.2748 212.712 70.0188 213.128C69.7735 213.533 69.6508 214.077 69.6508 214.76V219H68.3708ZM81.6211 219.16C80.8637 219.16 80.1864 218.995 79.5891 218.664C79.0024 218.333 78.5437 217.859 78.2131 217.24C77.8824 216.611 77.7171 215.864 77.7171 215C77.7171 214.136 77.8824 213.395 78.2131 212.776C78.5437 212.147 78.9971 211.667 79.5731 211.336C80.1491 211.005 80.8051 210.84 81.5411 210.84C82.2877 210.84 82.9224 211 83.4451 211.32C83.9784 211.64 84.3837 212.077 84.6611 212.632C84.9384 213.176 85.0771 213.789 85.0771 214.472C85.0771 214.653 85.0717 214.819 85.0611 214.968C85.0504 215.117 85.0344 215.251 85.0131 215.368H78.5491V214.232H84.4531L83.7971 214.36C83.7971 213.592 83.5837 213 83.1571 212.584C82.7411 212.168 82.1917 211.96 81.5091 211.96C80.9864 211.96 80.5331 212.083 80.1491 212.328C79.7757 212.563 79.4824 212.909 79.2691 213.368C79.0664 213.816 78.9651 214.36 78.9651 215C78.9651 215.629 79.0717 216.173 79.2851 216.632C79.4984 217.091 79.7971 217.443 80.1811 217.688C80.5757 217.923 81.0451 218.04 81.5891 218.04C82.1757 218.04 82.6504 217.928 83.0131 217.704C83.3864 217.48 83.6851 217.176 83.9091 216.792L84.9171 217.384C84.7144 217.747 84.4531 218.061 84.1331 218.328C83.8237 218.595 83.4557 218.803 83.0291 218.952C82.6131 219.091 82.1437 219.16 81.6211 219.16ZM98.7406 222.36V216.808L98.9646 216.968C98.8899 217.437 98.7086 217.837 98.4206 218.168C98.1432 218.488 97.7966 218.733 97.3806 218.904C96.9752 219.075 96.5432 219.16 96.0846 219.16C95.4232 219.16 94.8152 218.995 94.2606 218.664C93.7059 218.333 93.2632 217.859 92.9326 217.24C92.6019 216.611 92.4366 215.864 92.4366 215C92.4366 214.115 92.6126 213.363 92.9646 212.744C93.3166 212.125 93.7806 211.656 94.3566 211.336C94.9326 211.005 95.5512 210.84 96.2126 210.84C96.6606 210.84 97.0766 210.925 97.4606 211.096C97.8446 211.256 98.1699 211.491 98.4366 211.8C98.7139 212.099 98.8952 212.456 98.9806 212.872H98.7886L98.9006 211H100.021V222.36H98.7406ZM96.2126 218.04C96.7139 218.04 97.1512 217.917 97.5246 217.672C97.9086 217.416 98.2072 217.059 98.4206 216.6C98.6339 216.131 98.7406 215.581 98.7406 214.952C98.7406 214.312 98.6339 213.773 98.4206 213.336C98.2179 212.888 97.9299 212.547 97.5566 212.312C97.1832 212.077 96.7459 211.96 96.2446 211.96C95.4552 211.96 94.8366 212.237 94.3886 212.792C93.9406 213.347 93.7166 214.083 93.7166 215C93.7166 215.917 93.9352 216.653 94.3726 217.208C94.8099 217.763 95.4232 218.04 96.2126 218.04ZM105.892 219.16C105.38 219.16 104.894 219.064 104.436 218.872C103.988 218.68 103.62 218.371 103.332 217.944C103.054 217.507 102.916 216.941 102.916 216.248V211H104.196V215.912C104.196 216.723 104.372 217.283 104.724 217.592C105.076 217.891 105.572 218.04 106.212 218.04C106.51 218.04 106.804 217.992 107.092 217.896C107.38 217.789 107.636 217.629 107.86 217.416C108.094 217.192 108.276 216.909 108.404 216.568C108.542 216.227 108.612 215.821 108.612 215.352V211H109.892V219H108.772L108.692 217.784C108.414 218.264 108.036 218.616 107.556 218.84C107.086 219.053 106.532 219.16 105.892 219.16ZM116.215 219.16C115.457 219.16 114.78 218.995 114.183 218.664C113.596 218.333 113.137 217.859 112.807 217.24C112.476 216.611 112.311 215.864 112.311 215C112.311 214.136 112.476 213.395 112.807 212.776C113.137 212.147 113.591 211.667 114.167 211.336C114.743 211.005 115.399 210.84 116.135 210.84C116.881 210.84 117.516 211 118.039 211.32C118.572 211.64 118.977 212.077 119.255 212.632C119.532 213.176 119.671 213.789 119.671 214.472C119.671 214.653 119.665 214.819 119.655 214.968C119.644 215.117 119.628 215.251 119.607 215.368H113.143V214.232H119.047L118.391 214.36C118.391 213.592 118.177 213 117.751 212.584C117.335 212.168 116.785 211.96 116.103 211.96C115.58 211.96 115.127 212.083 114.743 212.328C114.369 212.563 114.076 212.909 113.863 213.368C113.66 213.816 113.559 214.36 113.559 215C113.559 215.629 113.665 216.173 113.879 216.632C114.092 217.091 114.391 217.443 114.775 217.688C115.169 217.923 115.639 218.04 116.183 218.04C116.769 218.04 117.244 217.928 117.607 217.704C117.98 217.48 118.279 217.176 118.503 216.792L119.511 217.384C119.308 217.747 119.047 218.061 118.727 218.328C118.417 218.595 118.049 218.803 117.623 218.952C117.207 219.091 116.737 219.16 116.215 219.16ZM124.985 219.16C124.207 219.16 123.487 218.995 122.825 218.664C122.175 218.333 121.673 217.864 121.321 217.256L122.409 216.472C122.644 216.963 122.985 217.347 123.433 217.624C123.892 217.901 124.441 218.04 125.081 218.04C125.647 218.04 126.089 217.933 126.409 217.72C126.729 217.496 126.889 217.208 126.889 216.856C126.889 216.632 126.815 216.429 126.665 216.248C126.527 216.056 126.255 215.917 125.849 215.832L123.929 215.432C123.151 215.272 122.591 215.005 122.249 214.632C121.919 214.259 121.753 213.795 121.753 213.24C121.753 212.803 121.876 212.403 122.121 212.04C122.377 211.677 122.735 211.389 123.193 211.176C123.663 210.952 124.212 210.84 124.841 210.84C125.631 210.84 126.297 210.995 126.841 211.304C127.385 211.613 127.791 212.051 128.057 212.616L126.985 213.32C126.804 212.851 126.511 212.509 126.105 212.296C125.7 212.072 125.279 211.96 124.841 211.96C124.457 211.96 124.127 212.013 123.849 212.12C123.583 212.227 123.375 212.376 123.225 212.568C123.087 212.749 123.017 212.957 123.017 213.192C123.017 213.427 123.097 213.645 123.257 213.848C123.417 214.04 123.716 214.179 124.153 214.264L126.153 214.68C126.9 214.829 127.423 215.075 127.721 215.416C128.02 215.757 128.169 216.173 128.169 216.664C128.169 217.165 128.036 217.608 127.769 217.992C127.503 218.365 127.129 218.653 126.649 218.856C126.169 219.059 125.615 219.16 124.985 219.16ZM132.431 208.728V216.792C132.431 217.187 132.543 217.48 132.767 217.672C132.991 217.864 133.279 217.96 133.631 217.96C133.94 217.96 134.207 217.907 134.431 217.8C134.655 217.693 134.857 217.549 135.039 217.368L135.487 218.44C135.241 218.664 134.948 218.84 134.607 218.968C134.276 219.096 133.892 219.16 133.455 219.16C133.049 219.16 132.671 219.091 132.319 218.952C131.967 218.803 131.684 218.573 131.471 218.264C131.268 217.944 131.161 217.528 131.151 217.016V209.08L132.431 208.728ZM135.343 211V212.104H129.551V211H135.343ZM144.274 208.728V216.792C144.274 217.187 144.386 217.48 144.61 217.672C144.834 217.864 145.122 217.96 145.474 217.96C145.784 217.96 146.05 217.907 146.274 217.8C146.498 217.693 146.701 217.549 146.882 217.368L147.33 218.44C147.085 218.664 146.792 218.84 146.45 218.968C146.12 219.096 145.736 219.16 145.298 219.16C144.893 219.16 144.514 219.091 144.162 218.952C143.81 218.803 143.528 218.573 143.314 218.264C143.112 217.944 143.005 217.528 142.994 217.016V209.08L144.274 208.728ZM147.186 211V212.104H141.394V211H147.186ZM152.402 210.84C153.159 210.84 153.826 211.005 154.402 211.336C154.988 211.667 155.447 212.147 155.778 212.776C156.108 213.395 156.274 214.136 156.274 215C156.274 215.864 156.108 216.611 155.778 217.24C155.447 217.859 154.988 218.333 154.402 218.664C153.826 218.995 153.159 219.16 152.402 219.16C151.655 219.16 150.988 218.995 150.402 218.664C149.815 218.333 149.356 217.859 149.026 217.24C148.695 216.611 148.53 215.864 148.53 215C148.53 214.136 148.695 213.395 149.026 212.776C149.356 212.147 149.815 211.667 150.402 211.336C150.988 211.005 151.655 210.84 152.402 210.84ZM152.402 211.944C151.858 211.944 151.394 212.067 151.01 212.312C150.626 212.557 150.327 212.909 150.114 213.368C149.911 213.816 149.81 214.36 149.81 215C149.81 215.629 149.911 216.173 150.114 216.632C150.327 217.091 150.626 217.443 151.01 217.688C151.394 217.933 151.858 218.056 152.402 218.056C152.946 218.056 153.41 217.933 153.794 217.688C154.178 217.443 154.471 217.091 154.674 216.632C154.887 216.173 154.994 215.629 154.994 215C154.994 214.36 154.887 213.816 154.674 213.368C154.471 212.909 154.178 212.557 153.794 212.312C153.41 212.067 152.946 211.944 152.402 211.944ZM170.872 209.528L171.16 210.664C171.15 210.664 171.134 210.664 171.112 210.664C171.091 210.664 171.07 210.664 171.048 210.664C170.526 210.664 170.12 210.771 169.832 210.984C169.555 211.187 169.416 211.517 169.416 211.976L168.632 211.576C168.632 211.16 168.728 210.797 168.92 210.488C169.112 210.179 169.374 209.944 169.704 209.784C170.035 209.613 170.398 209.528 170.792 209.528C170.803 209.528 170.814 209.528 170.824 209.528C170.846 209.528 170.862 209.528 170.872 209.528ZM168.44 217.976C169.198 217.976 169.79 218.152 170.216 218.504C170.643 218.845 170.856 219.304 170.856 219.88C170.856 220.403 170.68 220.856 170.328 221.24C169.987 221.624 169.523 221.917 168.936 222.12C168.36 222.333 167.71 222.44 166.984 222.44C165.726 222.44 164.782 222.227 164.152 221.8C163.534 221.373 163.224 220.861 163.224 220.264C163.224 219.837 163.363 219.453 163.64 219.112C163.928 218.781 164.408 218.595 165.08 218.552L164.968 218.792C164.606 218.696 164.296 218.536 164.04 218.312C163.795 218.077 163.672 217.741 163.672 217.304C163.672 216.867 163.832 216.493 164.152 216.184C164.483 215.864 164.968 215.667 165.608 215.592L166.456 216.024H166.296C165.774 216.077 165.4 216.211 165.176 216.424C164.963 216.627 164.856 216.851 164.856 217.096C164.856 217.395 164.963 217.619 165.176 217.768C165.4 217.907 165.71 217.976 166.104 217.976H168.44ZM166.968 221.368C167.587 221.368 168.094 221.304 168.488 221.176C168.894 221.048 169.192 220.883 169.384 220.68C169.576 220.477 169.672 220.259 169.672 220.024C169.672 219.736 169.555 219.507 169.32 219.336C169.096 219.165 168.686 219.08 168.088 219.08H165.624C165.283 219.08 164.995 219.165 164.76 219.336C164.526 219.517 164.408 219.763 164.408 220.072C164.408 220.467 164.632 220.781 165.08 221.016C165.539 221.251 166.168 221.368 166.968 221.368ZM166.856 210.84C167.496 210.84 168.062 210.957 168.552 211.192C169.054 211.416 169.443 211.731 169.72 212.136C169.998 212.541 170.136 213.011 170.136 213.544C170.136 214.067 169.998 214.536 169.72 214.952C169.443 215.357 169.054 215.677 168.552 215.912C168.062 216.136 167.496 216.248 166.856 216.248C165.8 216.248 164.99 215.997 164.424 215.496C163.859 214.984 163.576 214.333 163.576 213.544C163.576 213.011 163.715 212.541 163.992 212.136C164.28 211.731 164.67 211.416 165.16 211.192C165.651 210.957 166.216 210.84 166.856 210.84ZM166.856 211.88C166.302 211.88 165.838 212.035 165.464 212.344C165.091 212.643 164.904 213.043 164.904 213.544C164.904 214.035 165.091 214.435 165.464 214.744C165.838 215.053 166.302 215.208 166.856 215.208C167.411 215.208 167.875 215.053 168.248 214.744C168.622 214.435 168.808 214.035 168.808 213.544C168.808 213.043 168.622 212.643 168.248 212.344C167.875 212.035 167.411 211.88 166.856 211.88ZM175.996 219.16C175.239 219.16 174.561 218.995 173.964 218.664C173.377 218.333 172.919 217.859 172.588 217.24C172.257 216.611 172.092 215.864 172.092 215C172.092 214.136 172.257 213.395 172.588 212.776C172.919 212.147 173.372 211.667 173.948 211.336C174.524 211.005 175.18 210.84 175.916 210.84C176.663 210.84 177.297 211 177.82 211.32C178.353 211.64 178.759 212.077 179.036 212.632C179.313 213.176 179.452 213.789 179.452 214.472C179.452 214.653 179.447 214.819 179.436 214.968C179.425 215.117 179.409 215.251 179.388 215.368H172.924V214.232H178.828L178.172 214.36C178.172 213.592 177.959 213 177.532 212.584C177.116 212.168 176.567 211.96 175.884 211.96C175.361 211.96 174.908 212.083 174.524 212.328C174.151 212.563 173.857 212.909 173.644 213.368C173.441 213.816 173.34 214.36 173.34 215C173.34 215.629 173.447 216.173 173.66 216.632C173.873 217.091 174.172 217.443 174.556 217.688C174.951 217.923 175.42 218.04 175.964 218.04C176.551 218.04 177.025 217.928 177.388 217.704C177.761 217.48 178.06 217.176 178.284 216.792L179.292 217.384C179.089 217.747 178.828 218.061 178.508 218.328C178.199 218.595 177.831 218.803 177.404 218.952C176.988 219.091 176.519 219.16 175.996 219.16ZM183.54 208.728V216.792C183.54 217.187 183.652 217.48 183.876 217.672C184.1 217.864 184.388 217.96 184.74 217.96C185.049 217.96 185.316 217.907 185.54 217.8C185.764 217.693 185.967 217.549 186.148 217.368L186.596 218.44C186.351 218.664 186.057 218.84 185.716 218.968C185.385 219.096 185.001 219.16 184.564 219.16C184.159 219.16 183.78 219.091 183.428 218.952C183.076 218.803 182.793 218.573 182.58 218.264C182.377 217.944 182.271 217.528 182.26 217.016V209.08L183.54 208.728ZM186.452 211V212.104H180.66V211H186.452ZM193.808 219V211H194.848L195.024 212.312C195.248 211.821 195.574 211.453 196 211.208C196.438 210.963 196.966 210.84 197.584 210.84C197.723 210.84 197.872 210.851 198.032 210.872C198.203 210.893 198.347 210.936 198.464 211L198.24 212.168C198.123 212.125 197.995 212.093 197.856 212.072C197.718 212.051 197.52 212.04 197.264 212.04C196.934 212.04 196.598 212.136 196.256 212.328C195.926 212.52 195.648 212.813 195.424 213.208C195.2 213.592 195.088 214.083 195.088 214.68V219H193.808ZM203.434 219.16C202.676 219.16 201.999 218.995 201.402 218.664C200.815 218.333 200.356 217.859 200.026 217.24C199.695 216.611 199.53 215.864 199.53 215C199.53 214.136 199.695 213.395 200.026 212.776C200.356 212.147 200.81 211.667 201.386 211.336C201.962 211.005 202.618 210.84 203.354 210.84C204.1 210.84 204.735 211 205.258 211.32C205.791 211.64 206.196 212.077 206.474 212.632C206.751 213.176 206.89 213.789 206.89 214.472C206.89 214.653 206.884 214.819 206.874 214.968C206.863 215.117 206.847 215.251 206.826 215.368H200.362V214.232H206.266L205.61 214.36C205.61 213.592 205.396 213 204.97 212.584C204.554 212.168 204.004 211.96 203.322 211.96C202.799 211.96 202.346 212.083 201.962 212.328C201.588 212.563 201.295 212.909 201.082 213.368C200.879 213.816 200.778 214.36 200.778 215C200.778 215.629 200.884 216.173 201.098 216.632C201.311 217.091 201.61 217.443 201.994 217.688C202.388 217.923 202.858 218.04 203.402 218.04C203.988 218.04 204.463 217.928 204.826 217.704C205.199 217.48 205.498 217.176 205.722 216.792L206.73 217.384C206.527 217.747 206.266 218.061 205.946 218.328C205.636 218.595 205.268 218.803 204.842 218.952C204.426 219.091 203.956 219.16 203.434 219.16ZM219.168 211H220.592L217.808 219H216.528L214.272 212.632L212.144 219H210.864L208.08 211H209.504L211.52 217.512L213.696 211H214.976L217.152 217.512L219.168 211ZM227.012 213.832C227.012 213.235 226.852 212.776 226.532 212.456C226.212 212.125 225.758 211.96 225.172 211.96C224.617 211.96 224.148 212.083 223.764 212.328C223.38 212.563 223.097 212.947 222.916 213.48L221.876 212.84C222.089 212.243 222.484 211.763 223.06 211.4C223.636 211.027 224.35 210.84 225.204 210.84C225.78 210.84 226.302 210.941 226.772 211.144C227.241 211.336 227.609 211.635 227.876 212.04C228.153 212.435 228.292 212.947 228.292 213.576V217.448C228.292 217.832 228.494 218.024 228.9 218.024C229.102 218.024 229.3 217.997 229.492 217.944L229.428 218.952C229.214 219.059 228.937 219.112 228.596 219.112C228.286 219.112 228.009 219.053 227.764 218.936C227.518 218.819 227.326 218.643 227.188 218.408C227.049 218.163 226.98 217.859 226.98 217.496V217.336L227.3 217.384C227.172 217.8 226.953 218.141 226.644 218.408C226.334 218.664 225.988 218.856 225.604 218.984C225.22 219.101 224.841 219.16 224.468 219.16C223.998 219.16 223.561 219.08 223.156 218.92C222.75 218.76 222.425 218.52 222.18 218.2C221.945 217.869 221.828 217.464 221.828 216.984C221.828 216.387 222.025 215.896 222.42 215.512C222.825 215.117 223.385 214.851 224.1 214.712L227.268 214.088V215.144L224.692 215.672C224.169 215.779 223.78 215.928 223.524 216.12C223.268 216.312 223.14 216.579 223.14 216.92C223.14 217.251 223.268 217.523 223.524 217.736C223.79 217.939 224.164 218.04 224.644 218.04C224.953 218.04 225.246 218.003 225.524 217.928C225.812 217.843 226.068 217.72 226.292 217.56C226.516 217.389 226.692 217.181 226.82 216.936C226.948 216.68 227.012 216.381 227.012 216.04V213.832ZM231.402 219V211H232.442L232.618 212.312C232.842 211.821 233.167 211.453 233.594 211.208C234.031 210.963 234.559 210.84 235.178 210.84C235.317 210.84 235.466 210.851 235.626 210.872C235.797 210.893 235.941 210.936 236.058 211L235.834 212.168C235.717 212.125 235.589 212.093 235.45 212.072C235.311 212.051 235.114 212.04 234.858 212.04C234.527 212.04 234.191 212.136 233.85 212.328C233.519 212.52 233.242 212.813 233.018 213.208C232.794 213.592 232.682 214.083 232.682 214.68V219H231.402ZM240.803 219.16C240.142 219.16 239.534 218.995 238.979 218.664C238.425 218.333 237.982 217.859 237.651 217.24C237.321 216.611 237.155 215.864 237.155 215C237.155 214.115 237.331 213.363 237.683 212.744C238.035 212.125 238.499 211.656 239.075 211.336C239.651 211.005 240.27 210.84 240.931 210.84C241.593 210.84 242.163 211.011 242.643 211.352C243.134 211.693 243.459 212.147 243.619 212.712L243.459 212.824V207.32H244.739V219H243.619L243.507 217.064L243.683 216.968C243.609 217.437 243.427 217.837 243.139 218.168C242.862 218.488 242.515 218.733 242.099 218.904C241.694 219.075 241.262 219.16 240.803 219.16ZM240.931 218.04C241.443 218.04 241.886 217.912 242.259 217.656C242.643 217.4 242.937 217.037 243.139 216.568C243.353 216.088 243.459 215.528 243.459 214.888C243.459 214.28 243.353 213.757 243.139 213.32C242.937 212.883 242.649 212.547 242.275 212.312C241.913 212.077 241.486 211.96 240.995 211.96C240.185 211.96 239.555 212.237 239.107 212.792C238.659 213.347 238.435 214.083 238.435 215C238.435 215.917 238.654 216.653 239.091 217.208C239.529 217.763 240.142 218.04 240.931 218.04ZM249.075 208.44V213.016L248.883 215.672H247.923L247.731 213.016V208.44H249.075ZM248.403 217.08C248.712 217.08 248.963 217.176 249.155 217.368C249.347 217.56 249.443 217.811 249.443 218.12C249.443 218.429 249.347 218.68 249.155 218.872C248.963 219.064 248.712 219.16 248.403 219.16C248.093 219.16 247.843 219.064 247.651 218.872C247.459 218.68 247.363 218.429 247.363 218.12C247.363 217.811 247.459 217.56 247.651 217.368C247.843 217.176 248.093 217.08 248.403 217.08Z"
    fill="#1D2020" />
  <path
    d="M192 63.4861C184.35 64.181 179.955 64.8204 177.257 66.933C174.086 69.407 173.335 73.938 172.5 83C171.638 73.6044 170.859 69.1012 167.382 66.6828C164.683 64.7926 160.316 64.181 153 63.5139C160.622 62.819 165.045 62.1796 167.715 60.0948C170.914 57.593 171.665 53.0898 172.5 44C173.279 52.3671 173.974 56.8425 176.561 59.4277C179.148 62.0128 183.655 62.7356 192 63.4861Z"
    fill="#1D2020" />
  <path
    d="M88 12.9907C82.9001 13.454 79.97 13.8803 78.1712 15.2887C76.0571 16.938 75.5563 19.9587 75 26C74.4251 19.7363 73.9058 16.7341 71.5877 15.1219C69.7889 13.8617 66.8773 13.454 62 13.0093C67.0813 12.546 70.03 12.1197 71.8103 10.7299C73.9429 9.06201 74.4437 6.05987 75 0C75.5193 5.57805 75.9829 8.56165 77.7076 10.2851C79.4322 12.0086 82.4365 12.4904 88 12.9907Z"
    fill="#1D2020" />
  <path
    d="M78 90.9943C74.8616 91.2794 73.0585 91.5417 71.9515 92.4084C70.6505 93.4234 70.3424 95.2823 70 99C69.6462 95.1454 69.3267 93.2979 67.9001 92.3058C66.7932 91.5303 65.0014 91.2794 62 91.0057C65.127 90.7206 66.9415 90.4583 68.0371 89.603C69.3495 88.5766 69.6576 86.7292 70 83C70.3195 86.4326 70.6048 88.2687 71.6662 89.3293C72.7275 90.3899 74.5763 90.6864 78 90.9943Z"
    fill="#1D2020" />
  <path fill-rule="evenodd" clip-rule="evenodd"
    d="M165.175 104.024C171.84 109.832 178.646 115.761 188.058 117.008L188.053 116.999C190.749 117.355 193.444 117.71 196.253 118.08L196.36 118.094L196.427 118.103L200.231 118.604L202 118.838C198.133 123.953 193.436 127.764 187.862 129.674C187.028 129.96 186.193 130.247 185.358 130.534C176.046 133.736 166.627 136.975 156.988 138.553C125.06 143.778 93.7516 140.673 63.4781 128.877C60.0832 127.554 56.8885 125.72 53.7033 123.317C54.496 123.26 55.2919 123.22 56.0879 123.18C57.8631 123.091 59.6386 123.003 61.3801 122.716C73.5725 120.7 84.0292 114.845 93.7612 107.557C94.5909 106.936 95.1058 105.164 94.9437 104.046C94.0807 98.1193 95.2918 92.6794 98.6677 87.8556C101.548 83.7483 101.748 79.9275 99.1016 75.6338C97.5567 73.1264 96.4743 70.2895 95.4539 67.5051C93.4608 62.0604 94.7768 57.3036 98.496 52.9048C100.074 51.0374 101.753 48.6399 101.924 46.3713C102.077 44.3797 100.67 41.5905 99.0396 40.3631C97.9872 39.5693 95.7586 40.1383 93.9165 40.6086L93.9163 40.6087C93.6636 40.6732 93.4183 40.7359 93.1842 40.7929C92.1972 41.0317 91.2912 42.049 90.5808 42.9039C84.5776 50.1252 76.9007 52.5753 67.7743 51.2285C66.4106 51.0279 64.613 50.8416 63.6355 51.5294C61.752 52.8571 59.84 54.6051 58.9245 56.6301C58.5717 57.4134 60.6506 60.2742 62.0525 60.6754C64.9897 61.5208 67.307 60.1023 67.5025 55.4027C70.0869 61.7739 67.7505 65.7475 62.5388 65.9529C57.761 66.1392 53.7986 64.2622 51.6815 59.8921C49.2212 54.8009 49.2545 49.3658 53.1645 45.1439C55.6344 42.4693 59.201 40.5063 62.6342 39.0926C66.5497 37.4805 70.5395 36.051 74.5291 34.6215L74.5294 34.6215L74.5297 34.6214L74.5299 34.6213L74.5302 34.6212C78.6248 33.1542 82.7192 31.6872 86.7328 30.023C89.0785 29.0515 91.1235 27.28 93.1294 25.5425C93.5985 25.1361 94.0655 24.7316 94.5336 24.3396C95.5064 23.5257 96.3852 22.5973 97.2635 21.6694C98.2407 20.6371 99.2173 19.6053 100.322 18.7326C109.434 11.5399 117.655 12.6145 125.103 21.4883C127.209 23.9981 129.489 26.3614 131.769 28.7252C133.329 30.3422 134.889 31.9596 136.394 33.6241C136.508 33.7497 136.622 33.8752 136.736 34.0006C139.492 37.0335 142.247 40.064 139.417 44.8429C138.916 45.6883 140.023 48.1623 141.072 49.1413C144.791 52.6087 146.24 56.5059 145.768 61.6784C145.32 66.5738 147.122 70.7958 152.148 73.093C155.29 74.5306 156.878 77.0714 157.188 80.8206C157.348 82.7768 158.144 84.6771 158.94 86.5796L158.94 86.58C159.306 87.4549 159.673 88.3304 159.978 89.212C160.02 89.337 160.064 89.4619 160.107 89.5869C160.345 90.2696 160.584 90.9549 160.717 91.6573C160.932 92.7928 161.014 94.0797 161.096 95.3643C161.271 98.0892 161.444 100.804 162.886 102.04C163.649 102.695 164.41 103.358 165.173 104.022L165.175 104.024ZM116.919 105.406L116.919 105.407L116.918 105.407C116.688 105.638 116.314 105.638 116.083 105.408C115.852 105.177 115.851 104.803 116.081 104.572L116.224 104.714C116.082 104.572 116.082 104.572 116.082 104.572L116.083 104.571L116.085 104.568L116.093 104.561L116.121 104.533L116.156 104.5C116.175 104.482 116.198 104.46 116.225 104.435C116.315 104.35 116.446 104.23 116.617 104.082C116.959 103.787 117.457 103.38 118.091 102.929C119.358 102.029 121.18 100.943 123.389 100.218C125.601 99.4919 128.211 99.1239 131.039 99.6731C133.871 100.223 136.883 101.685 139.907 104.561C140.144 104.786 140.153 105.16 139.928 105.397C139.703 105.633 139.329 105.643 139.093 105.418C136.214 102.68 133.401 101.336 130.813 100.834C128.223 100.33 125.82 100.664 123.758 101.341C121.692 102.019 119.977 103.039 118.776 103.893C118.177 104.319 117.708 104.701 117.391 104.976C117.233 105.113 117.112 105.223 117.033 105.298C116.993 105.335 116.963 105.363 116.944 105.382L116.923 105.402L116.919 105.406ZM119.881 91.1906C119.881 92.9515 118.451 94.3812 116.691 94.3812C114.93 94.3812 113.5 92.9515 113.5 91.1906C113.5 89.4297 114.93 88 116.691 88C118.451 88 119.881 89.4297 119.881 91.1906ZM142.881 91.1906C142.881 92.9515 141.451 94.3812 139.691 94.3812C137.93 94.3812 136.5 92.9515 136.5 91.1906C136.5 89.4297 137.93 88 139.691 88C141.451 88 142.881 89.4297 142.881 91.1906Z"
    fill="#1D2020" />
</svg>