<svg width="62" height="62" viewBox="0 0 62 62" fill="none" xmlns="http://www.w3.org/2000/svg">
<g filter="url(#filter0_d_1426_7012)">
<path d="M8.49986 31.125C8.49986 18.7324 18.5194 8.625 30.9999 8.625C43.3924 8.625 53.4999 18.7324 53.4999 31.125C53.4999 43.6055 43.3924 53.625 30.9999 53.625C18.5194 53.625 8.49986 43.6055 8.49986 31.125ZM30.9999 36.75C27.0448 36.75 23.9686 39.9141 23.9686 43.7812C23.9686 44.5723 24.5838 45.1875 25.3749 45.1875H36.6249C37.328 45.1875 38.0311 44.5723 38.0311 43.7812C38.0311 39.9141 34.867 36.75 30.9999 36.75ZM23.9686 25.5C22.3866 25.5 21.1561 26.8184 21.1561 28.3125C21.1561 29.8945 22.3866 31.125 23.9686 31.125C25.5506 31.125 26.7811 29.8945 26.7811 28.3125C26.7811 26.8184 25.5506 25.5 23.9686 25.5ZM38.0311 31.125C39.6131 31.125 40.8436 29.8945 40.8436 28.3125C40.8436 26.8184 39.6131 25.5 38.0311 25.5C36.4491 25.5 35.2186 26.8184 35.2186 28.3125C35.2186 29.8945 36.4491 31.125 38.0311 31.125ZM26.7811 18.4688C26.7811 17.7656 26.078 17.0625 25.3749 17.0625C24.8475 17.0625 24.3202 17.1504 23.7928 17.2383C21.3319 17.502 19.1346 18.6445 17.3768 20.3145C16.7616 20.8418 16.7616 21.7207 17.2889 22.248C17.8163 22.8633 18.6952 22.8633 19.2225 22.3359C20.6288 21.1055 22.2987 20.2266 24.1444 19.9629C24.5838 19.9629 24.9354 19.875 25.3749 19.875C26.078 19.875 26.7811 19.2598 26.7811 18.4688ZM42.6893 22.3359C43.2167 22.8633 44.0956 22.8633 44.6229 22.248C45.1502 21.7207 45.1502 20.8418 44.535 20.3145C42.7772 18.6445 40.5799 17.502 38.119 17.2383C37.5917 17.1504 37.0643 17.0625 36.6249 17.0625C35.8338 17.0625 35.2186 17.7656 35.2186 18.4688C35.2186 19.2598 35.8338 19.875 36.6249 19.875C36.9764 19.875 37.328 19.9629 37.7674 19.9629C39.6131 20.2266 41.2831 21.1055 42.6893 22.3359Z" fill="white"/>
</g>
<defs>
<filter id="filter0_d_1426_7012" x="0.38104" y="0.50604" width="61.2379" height="61.2379" filterUnits="userSpaceOnUse" color-interpolation-filters="sRGB">
<feFlood flood-opacity="0" result="BackgroundImageFix"/>
<feColorMatrix in="SourceAlpha" type="matrix" values="0 0 0 0 0 0 0 0 0 0 0 0 0 0 0 0 0 0 127 0" result="hardAlpha"/>
<feOffset/>
<feGaussianBlur stdDeviation="4.05948"/>
<feComposite in2="hardAlpha" operator="out"/>
<feColorMatrix type="matrix" values="0 0 0 0 0 0 0 0 0 0.779167 0 0 0 0 0.545416 0 0 0 0.6 0"/>
<feBlend mode="normal" in2="BackgroundImageFix" result="effect1_dropShadow_1426_7012"/>
<feBlend mode="normal" in="SourceGraphic" in2="effect1_dropShadow_1426_7012" result="shape"/>
</filter>
</defs>
</svg>
