<svg width="118" height="28" viewBox="0 0 118 28" fill="none" xmlns="http://www.w3.org/2000/svg">
  <g clip-path="url(#clip0_653_228)">
    <path
      d="M94.3755 8.04994C92.2065 8.04994 91.123 9.0697 91.123 11.1071H90.6021V9.11422C90.6021 7.69589 91.3389 6.98778 92.8146 6.98778H104.913V8.04994H99.058V24.5273H96.7168V8.04994H94.3755ZM112.147 25.0594C110.897 25.0594 109.797 24.8198 108.842 24.3428C107.906 23.8467 107.047 23.1386 106.267 22.2164L106.684 21.7372C107.36 22.4983 108.089 23.0665 108.869 23.4375C109.65 23.8107 110.526 23.9951 111.497 23.9951C112.624 23.9951 113.552 23.6326 114.281 22.9054C115.026 22.1612 115.399 21.063 115.399 19.6108C115.399 18.7246 115.235 17.9719 114.905 17.3508C114.575 16.7317 114.152 16.2695 113.631 15.9685C113.11 15.6505 112.572 15.4893 112.018 15.4893C111.29 15.4893 110.752 15.5169 110.405 15.5699C110.059 15.6229 109.554 15.7289 108.896 15.8879L108.22 14.7727L115.271 8.04994H110.457C109.399 8.04994 108.593 8.28103 108.037 8.74109C107.483 9.20115 107.205 9.90078 107.205 10.84H106.684V9.1121C106.684 7.69377 107.421 6.98566 108.896 6.98566H117.17V8.04782L110.196 14.6922C110.872 14.5141 111.653 14.4272 112.537 14.4272C113.23 14.4272 113.994 14.5777 114.826 14.8787C115.659 15.1628 116.396 15.6929 117.039 16.473C117.68 17.2342 118.002 18.2794 118.002 19.6087C118.002 21.027 117.672 22.1422 117.014 22.9563C116.373 23.7704 115.609 24.3216 114.725 24.6036C113.84 24.9046 112.981 25.0552 112.149 25.0552L112.147 25.0594Z"
      fill="white" />
    <path
      d="M85.7095 19.6954C84.5472 19.8035 83.8788 19.9032 83.47 20.2297C82.9884 20.6134 82.8743 21.3173 82.7477 22.7229C82.6169 21.2643 82.4986 20.5646 81.9693 20.1894C81.5583 19.8968 80.8962 19.8014 79.7837 19.6975C80.9419 19.5894 81.6144 19.4898 82.0191 19.1675C82.5048 18.7795 82.619 18.0799 82.7456 16.67C82.8639 17.9697 82.9697 18.6629 83.362 19.0657C83.7543 19.4664 84.4393 19.5788 85.7075 19.6954H85.7095Z"
      fill="#05BEA9" />
    <path
      d="M54.7935 13.7848C53.6312 13.8929 52.9628 13.9925 52.5539 14.319C52.0724 14.7028 51.9582 15.4066 51.8316 16.8123C51.7009 15.3536 51.5826 14.654 51.0533 14.2787C50.6423 13.9862 49.9802 13.8908 48.8677 13.7869C50.0259 13.6788 50.6984 13.5791 51.1031 13.2569C51.5888 12.8689 51.7029 12.1693 51.8296 10.7594C51.9479 12.059 52.0537 12.7523 52.446 13.1551C52.8383 13.5558 53.5233 13.6682 54.7914 13.7848H54.7935Z"
      fill="#05BEA9" />
    <path
      d="M5.92584 3.02488C4.76351 3.133 4.09516 3.23265 3.68627 3.55914C3.20473 3.94288 3.09057 4.64674 2.96396 6.05236C2.8332 4.59374 2.71489 3.89411 2.18561 3.51886C1.77464 3.22629 1.11252 3.13088 0 3.027C1.15819 2.91887 1.83068 2.81923 2.23542 2.49698C2.72111 2.109 2.83527 1.40937 2.96188 -0.000488281C3.08019 1.29913 3.18605 1.99239 3.57834 2.39521C3.97063 2.79591 4.65557 2.90827 5.92377 3.02488H5.92584Z"
      fill="#05BEA9" />
    <path
      d="M28.6575 24.5272H27.6176V10.1742C27.6176 9.32404 27.4349 8.66893 27.0717 8.20675C26.7251 7.74669 26.1273 7.5156 25.2763 7.5156H25.0168V6.98346H26.7085C27.5055 6.98346 28.1821 7.11703 28.7384 7.38204C29.2926 7.64705 29.7887 8.04562 30.2225 8.57777L39.3281 20.1386V6.98558H40.368V24.7922H39.847L28.6595 10.5749V24.5272H28.6575Z"
      fill="white" />
    <path
      d="M4.1821 24.5273C3.54074 24.5273 3.05505 24.4467 2.72503 24.2877C2.41369 24.1096 2.18745 23.8001 2.04838 23.357C1.90932 22.9139 1.84082 22.2418 1.84082 21.3365V6.98566H4.1821V21.3365C4.1821 22.2397 4.30248 22.9139 4.54533 23.357C4.78817 23.7831 5.27386 23.9951 6.0024 23.9951H6.52338V24.5273H4.1821Z"
      fill="white" />
    <path
      d="M10.8469 24.5272H9.80703V10.1742C9.80703 9.32404 9.62437 8.66893 9.26114 8.20675C8.91452 7.74669 8.31675 7.5156 7.46575 7.5156H7.2063V6.98346H8.89791C9.69494 6.98346 10.3716 7.11703 10.9279 7.38204C11.482 7.64705 11.9781 8.04562 12.4119 8.57777L21.5176 20.1386V6.98558H22.5574V24.7922H22.0365L10.8469 10.5728V24.5272Z"
      fill="white" />
    <path
      d="M58.9074 10.0976C58.2473 8.96761 57.3029 8.07717 56.0721 7.42843C54.8579 6.77968 53.4444 6.45319 51.8317 6.45319C50.2189 6.45319 48.7971 6.77756 47.5642 7.42843C46.35 8.07717 45.4139 8.96761 44.7539 10.0976C44.0938 11.2276 43.7659 12.4848 43.7659 13.8671C43.7659 15.2494 44.0959 16.5088 44.7539 17.6367C45.4139 18.7667 46.35 19.655 47.5642 20.3058C48.7951 20.9546 50.2189 21.2811 51.8317 21.2811C53.4444 21.2811 54.8579 20.9567 56.0721 20.3058C57.3029 19.6571 58.2494 18.7667 58.9074 17.6367C59.5674 16.5066 59.8954 15.2494 59.8954 13.8671C59.8954 12.4848 59.5653 11.2255 58.9074 10.0976ZM56.6429 17.3632C56.2091 18.3384 55.576 19.0931 54.7437 19.6295C53.928 20.1659 52.9566 20.4352 51.8296 20.4352C50.7025 20.4352 49.7228 20.1659 48.8905 19.6295C48.0748 19.0931 47.4501 18.3384 47.0163 17.3632C46.5825 16.3752 46.3666 15.2092 46.3666 13.8671C46.3666 12.5251 46.5825 11.3675 47.0163 10.3923C47.4501 9.40435 48.0748 8.64112 48.8905 8.10473C49.7228 7.56835 50.7025 7.2991 51.8296 7.2991C52.9566 7.2991 53.928 7.56835 54.7437 8.10473C55.576 8.64112 56.2091 9.40435 56.6429 10.3923C57.0767 11.3675 57.2926 12.5251 57.2926 13.8671C57.2926 15.2092 57.0767 16.3731 56.6429 17.3632Z"
      fill="white" />
    <path
      d="M79.3313 18.4126L82.5837 10.7061L85.7055 18.4126L86.8761 21.2026C87.1854 22.0698 87.5756 22.9093 87.9699 23.7362C88.3083 24.4485 88.657 25.1587 89.0513 25.8393C89.3502 26.3545 89.647 26.8845 90.114 27.264C90.581 27.6435 91.2847 27.8428 91.8741 27.9339C92.3993 28.0145 92.9285 27.9954 93.4557 27.9933C93.8231 27.9933 94.1926 27.989 94.56 27.9869C95.0519 27.9848 95.5417 27.9827 96.0336 27.9784C96.6252 27.9763 97.2167 27.9721 97.8083 27.97C98.4766 27.9657 99.147 27.9636 99.8154 27.9594C100.54 27.9551 101.264 27.9509 101.989 27.9488C102.713 27.9466 103.504 27.9403 104.261 27.936C105.019 27.9318 105.797 27.9276 106.563 27.9233C107.329 27.9191 108.074 27.9148 108.83 27.9106C109.55 27.9064 110.27 27.9021 110.99 27.9C111.653 27.8958 112.317 27.8936 112.979 27.8894C113.562 27.8873 114.145 27.883 114.729 27.8809C115.21 27.8788 115.69 27.8767 116.171 27.8724C116.526 27.8724 116.883 27.8682 117.238 27.8661C117.446 27.8661 117.655 27.864 117.863 27.8618C117.904 27.8618 117.96 27.8724 118 27.8618V27.3297C117.84 27.3149 117.67 27.3297 117.51 27.3297C117.062 27.3297 116.611 27.3297 116.163 27.3297C115.486 27.3297 114.807 27.3297 114.131 27.3297C113.284 27.3297 112.435 27.3297 111.588 27.3297C110.627 27.3297 109.668 27.3297 108.707 27.3297C107.692 27.3297 106.677 27.3297 105.662 27.3297C104.647 27.3297 103.637 27.3297 102.626 27.3297C101.673 27.3297 100.722 27.3297 99.7697 27.3297C98.9353 27.3297 98.1009 27.3297 97.2686 27.3297C96.6107 27.3297 95.9527 27.3297 95.2947 27.3297C94.8692 27.3297 94.4458 27.3297 94.0203 27.3297C93.6363 27.3297 93.2461 27.2894 92.8787 27.1707C92.4221 27.0244 92.0589 26.7891 91.8181 26.3629C91.6583 26.081 91.5171 25.7863 91.376 25.4937C90.9899 24.6881 90.6309 23.8718 90.2738 23.0535C90.0061 22.4387 89.73 21.826 89.481 21.2048L83.7565 6.98746H82.976L75.6907 24.5269H76.8613L78.9431 19.4769L79.3334 18.4147L79.3313 18.4126Z"
      fill="white" />
    <path d="M59.8952 23.5922H43.7637V24.7137H59.8952V23.5922Z" fill="white" />
    <path
      d="M60.9082 6.15872C60.4744 5.13048 60.0676 4.43085 59.6857 4.05983C59.1502 3.53829 58.349 3.53193 57.6516 3.52981C57.3714 3.52981 7.2041 3.36868 7.2041 3.36868V2.83654C7.29128 2.83654 58.7579 2.78354 58.9302 2.78354C59.7978 2.78354 60.6301 3.01463 61.4271 3.47469C62.2241 3.91779 62.9008 4.81246 63.4571 6.15872L69.7648 20.8064L71.3008 17.1662C72.0293 15.4468 73.4262 12.0547 75.4893 6.98767H76.7388L69.2708 24.7943H68.8017L60.9082 6.16084V6.15872Z"
      fill="white" />
  </g>
  <defs>
    <clipPath id="clip0_653_228">
      <rect width="118" height="28" fill="white" />
    </clipPath>
  </defs>
</svg>