<svg viewBox="0 0 48 48" fill="none" xmlns="http://www.w3.org/2000/svg" width="32" height="32">
  <path d="m41.296 5.349-14.99 11.133 2.771-6.568 12.219-4.565Z" fill="#E2761B" stroke="#E2761B" stroke-width="0.151"
    stroke-linecap="round" stroke-linejoin="round"></path>
  <path
    d="m6.69 5.349 14.87 11.239-2.637-6.674L6.689 5.349ZM35.902 31.156l-3.992 6.117 8.542 2.35 2.456-8.331-7.006-.136ZM5.107 31.292l2.44 8.331 8.543-2.35-3.992-6.117-6.99.136Z"
    fill="#E4761B" stroke="#E4761B" stroke-width="0.151" stroke-linecap="round" stroke-linejoin="round"></path>
  <path
    d="m15.608 20.821-2.38 3.6 8.482.378-.301-9.115-5.8 5.137ZM32.377 20.821 26.5 15.578l-.196 9.22 8.467-.376-2.395-3.6ZM16.09 37.273l5.092-2.485-4.399-3.435-.693 5.92ZM26.802 34.788l5.107 2.485-.708-5.92-4.399 3.435Z"
    fill="#E4761B" stroke="#E4761B" stroke-width="0.151" stroke-linecap="round" stroke-linejoin="round"></path>
  <path
    d="m31.91 37.273-5.108-2.486.407 3.33-.045 1.4 4.745-2.244ZM16.09 37.273l4.746 2.245-.03-1.401.377-3.33-5.093 2.486Z"
    fill="#D7C1B3" stroke="#D7C1B3" stroke-width="0.151" stroke-linecap="round" stroke-linejoin="round"></path>
  <path d="m20.911 29.153-4.248-1.25 2.998-1.372 1.25 2.622ZM27.073 29.153l1.25-2.622 3.014 1.371-4.264 1.25Z"
    fill="#233447" stroke="#233447" stroke-width="0.151" stroke-linecap="round" stroke-linejoin="round"></path>
  <path
    d="m16.09 37.273.723-6.117-4.715.136 3.992 5.981ZM31.186 31.156l.723 6.117 3.993-5.981-4.716-.136ZM34.772 24.422l-8.467.377.783 4.354 1.25-2.622 3.014 1.371 3.42-3.48ZM16.663 27.902l3.013-1.37 1.235 2.62.799-4.354-8.482-.376 3.435 3.48Z"
    fill="#CD6116" stroke="#CD6116" stroke-width="0.151" stroke-linecap="round" stroke-linejoin="round"></path>
  <path
    d="m13.228 24.422 3.556 6.93-.12-3.45-3.436-3.48ZM31.352 27.902l-.15 3.45 3.57-6.93-3.42 3.48ZM21.71 24.799l-.798 4.354.994 5.137.226-6.764-.422-2.727ZM26.305 24.799l-.407 2.712.181 6.78 1.01-5.138-.784-4.354Z"
    fill="#E4751F" stroke="#E4751F" stroke-width="0.151" stroke-linecap="round" stroke-linejoin="round"></path>
  <path
    d="m27.089 29.153-1.01 5.137.723.498 4.4-3.436.15-3.45-4.263 1.25ZM16.663 27.902l.12 3.45 4.4 3.436.723-.498-.995-5.137-4.248-1.25Z"
    fill="#F6851B" stroke="#F6851B" stroke-width="0.151" stroke-linecap="round" stroke-linejoin="round"></path>
  <path
    d="m27.164 39.518.045-1.4-.377-.332h-5.68l-.346.331.03 1.401-4.746-2.245 1.658 1.356 3.36 2.336h5.77l3.374-2.336 1.658-1.356-4.746 2.245Z"
    fill="#C0AD9E" stroke="#C0AD9E" stroke-width="0.151" stroke-linecap="round" stroke-linejoin="round"></path>
  <path d="m26.802 34.787-.723-.497h-4.173l-.723.497-.377 3.33.347-.332h5.68l.376.332-.407-3.33Z" fill="#161616"
    stroke="#161616" stroke-width="0.151" stroke-linecap="round" stroke-linejoin="round"></path>
  <path
    d="m41.928 17.206 1.281-6.147-1.913-5.71-14.494 10.757 5.575 4.715 7.88 2.305 1.747-2.034-.753-.542 1.205-1.1-.934-.723 1.205-.919-.799-.602ZM4.79 11.059l1.281 6.147-.813.602 1.205.92-.919.722 1.205 1.1-.753.543 1.733 2.033 7.88-2.305 5.574-4.715L6.689 5.349l-1.898 5.71Z"
    fill="#763D16" stroke="#763D16" stroke-width="0.151" stroke-linecap="round" stroke-linejoin="round"></path>
  <path
    d="m40.256 23.126-7.88-2.305 2.396 3.601-3.57 6.93 4.7-.06h7.006l-2.652-8.166ZM15.608 20.821l-7.88 2.305-2.62 8.166h6.99l4.685.06-3.555-6.93 2.38-3.6ZM26.305 24.798l.497-8.693 2.29-6.192h-10.17l2.26 6.192.528 8.693.18 2.742.016 6.75h4.173l.03-6.75.196-2.742Z"
    fill="#F6851B" stroke="#F6851B" stroke-width="0.151" stroke-linecap="round" stroke-linejoin="round"></path>
</svg>