<svg width="152" height="141" viewBox="0 0 152 141" fill="#fff" xmlns="http://www.w3.org/2000/svg">
  <path
    d="M142.001 63.4861C134.351 64.181 129.956 64.8204 127.258 66.933C124.087 69.407 123.335 73.938 122.501 83C121.639 73.6044 120.86 69.1012 117.383 66.6828C114.684 64.7926 110.317 64.181 103.001 63.5139C110.623 62.819 115.046 62.1796 117.716 60.0948C120.915 57.593 121.666 53.0898 122.501 44C123.28 52.3671 123.975 56.8425 126.562 59.4277C129.149 62.0128 133.656 62.7356 142.001 63.4861Z" />
  <path
    d="M38.001 12.9907C32.9011 13.454 29.971 13.8803 28.1722 15.2887C26.058 16.938 25.5573 19.9587 25.001 26C24.4261 19.7363 23.9068 16.7341 21.5887 15.1219C19.7898 13.8617 16.8783 13.454 12.001 13.0093C17.0823 12.546 20.0309 12.1197 21.8112 10.7299C23.9439 9.06201 24.4446 6.05987 25.001 0C25.5202 5.57805 25.9839 8.56165 27.7085 10.2851C29.4332 12.0086 32.4375 12.4904 38.001 12.9907Z" />
  <path
    d="M28.001 90.9943C24.8626 91.2794 23.0595 91.5417 21.9525 92.4084C20.6515 93.4234 20.3433 95.2823 20.001 99C19.6472 95.1454 19.3277 93.2979 17.9011 92.3058C16.7941 91.5303 15.0024 91.2794 12.001 91.0057C15.1279 90.7206 16.9425 90.4583 18.0381 89.603C19.3505 88.5766 19.6586 86.7292 20.001 83C20.3205 86.4326 20.6058 88.2687 21.6672 89.3293C22.7285 90.3899 24.5773 90.6864 28.001 90.9943Z" />
  <path fill-rule="evenodd" clip-rule="evenodd"
    d="M115.176 104.024C121.841 109.832 128.647 115.761 138.059 117.008L138.054 116.999C140.822 117.365 143.588 117.729 146.477 118.11C148.262 118.345 150.093 118.586 152.001 118.838C148.134 123.953 143.437 127.764 137.863 129.674C137.032 129.959 136.199 130.245 135.366 130.532L135.359 130.534C126.047 133.736 116.628 136.975 106.989 138.553C75.0608 143.778 43.7526 140.673 13.4791 128.877C10.0842 127.554 6.88944 125.72 3.70426 123.317C4.49643 123.26 5.29179 123.22 6.08724 123.18L6.08767 123.18L6.0881 123.18L6.08853 123.18L6.08897 123.18C7.86409 123.091 9.63965 123.003 11.3811 122.716C23.5735 120.7 34.0302 114.845 43.7622 107.557C44.5918 106.936 45.1068 105.164 44.9447 104.046C44.0816 98.1193 45.2928 92.6794 48.6687 87.8556C51.5487 83.7483 51.7489 79.9275 49.1026 75.6338C47.5577 73.1264 46.4753 70.2895 45.4549 67.5051C43.4618 62.0605 44.7778 57.3036 48.497 52.9049C50.0753 51.0374 51.7537 48.6399 51.9254 46.3713C52.078 44.3797 50.6713 41.5905 49.0406 40.3631C47.9881 39.5693 45.7592 40.1384 43.9171 40.6088L43.9169 40.6088L43.916 40.6091C43.6638 40.6734 43.4189 40.736 43.1852 40.7929C42.1982 41.0317 41.2922 42.049 40.5817 42.9039C34.5785 50.1252 26.9017 52.5753 17.7753 51.2285C16.4116 51.0279 14.614 50.8416 13.6365 51.5294C11.753 52.8571 9.84097 54.6051 8.92547 56.6301C8.57262 57.4134 10.6516 60.2742 12.0534 60.6754C14.9907 61.5208 17.308 60.1023 17.5035 55.4027C20.0879 61.7739 17.7515 65.7475 12.5398 65.9529C7.76203 66.1392 3.79963 64.2622 1.68253 59.8922C-0.777874 54.8009 -0.744496 49.3658 3.16545 45.1439C5.6354 42.4693 9.20203 40.5064 12.6352 39.0927C16.551 37.4804 20.5412 36.0508 24.5312 34.6212C28.6257 33.1542 32.7201 31.6872 36.7338 30.023C39.0795 29.0515 41.1246 27.28 43.1304 25.5424C43.5995 25.1361 44.0665 24.7316 44.5346 24.3396C45.5074 23.5257 46.3862 22.5973 47.2645 21.6694C48.2417 20.6371 49.2183 19.6054 50.3232 18.7326C59.4353 11.5399 67.6558 12.6145 75.1037 21.4883C77.2102 23.9981 79.4898 26.3614 81.77 28.7251L81.7701 28.7253L81.7702 28.7254C83.33 30.3424 84.89 31.9596 86.3949 33.6241C86.5085 33.7497 86.6226 33.8752 86.7366 34.0006C89.4932 37.0335 92.2477 40.064 89.418 44.843C88.9173 45.6883 90.0235 48.1623 91.0725 49.1414C94.7917 52.6087 96.2413 56.506 95.7692 61.6784C95.321 66.5738 97.1234 70.7958 102.149 73.093C105.291 74.5306 106.879 77.0714 107.189 80.8206C107.349 82.7768 108.145 84.6771 108.941 86.5796L108.941 86.5798C109.307 87.4548 109.674 88.3304 109.979 89.212C110.021 89.337 110.065 89.462 110.108 89.5871L110.109 89.5873C110.346 90.2699 110.585 90.9551 110.718 91.6573C110.933 92.7928 111.015 94.0797 111.097 95.3644C111.272 98.0892 111.445 100.804 112.887 102.04C113.65 102.695 114.411 103.358 115.174 104.023L115.176 104.024ZM66.9198 105.406L66.9195 105.407L66.9192 105.407C66.6887 105.638 66.3147 105.638 66.0836 105.408C65.8525 105.177 65.852 104.803 66.0825 104.572L66.501 104.989C66.0825 104.572 66.0827 104.572 66.083 104.572L66.0838 104.571L66.0862 104.568L66.094 104.561L66.1219 104.533L66.1583 104.498L66.1828 104.475L66.2256 104.435C66.3157 104.35 66.4474 104.23 66.6182 104.082C66.9595 103.787 67.4578 103.38 68.0923 102.929C69.3591 102.029 71.1806 100.943 73.3899 100.218C75.6017 99.4919 78.2115 99.1239 81.0398 99.6732C83.8717 100.223 86.8844 101.685 89.9083 104.561C90.1448 104.786 90.1542 105.16 89.9293 105.397C89.7043 105.633 89.3302 105.643 89.0937 105.418C86.2152 102.68 83.4018 101.336 80.8145 100.834C78.2236 100.33 75.8212 100.664 73.7586 101.341C71.6935 102.019 69.9783 103.039 68.7771 103.893C68.1776 104.319 67.709 104.701 67.392 104.976C67.2336 105.113 67.1132 105.223 67.0336 105.298C66.9938 105.335 66.9641 105.363 66.945 105.382L66.9242 105.402L66.9198 105.406ZM69.8822 91.1906C69.8822 92.9515 68.4525 94.3812 66.6916 94.3812C64.9307 94.3812 63.501 92.9515 63.501 91.1906C63.501 89.4297 64.9307 88 66.6916 88C68.4525 88 69.8822 89.4297 69.8822 91.1906ZM92.8822 91.1906C92.8822 92.9515 91.4525 94.3812 89.6916 94.3812C87.9307 94.3812 86.501 92.9515 86.501 91.1906C86.501 89.4297 87.9307 88 89.6916 88C91.4525 88 92.8822 89.4297 92.8822 91.1906Z" />
</svg>