<svg width="60" height="55" viewBox="0 0 60 55" fill="none" xmlns="http://www.w3.org/2000/svg">
  <path fill-rule="evenodd" clip-rule="evenodd"
    d="M42.9555 9.85489L37.7365 0.913931C37.4882 0.488639 37.0801 0.178889 36.6032 0.0559724C36.1287 -0.0620276 35.6199 0.00680563 35.197 0.260014L19.2424 9.83276L42.9555 9.85489ZM7.875 12.2911C6.52292 12.2911 5.41667 11.1848 5.41667 9.83275C5.41667 8.48067 6.52292 7.37442 7.875 7.37442H16.1596L24.3704 2.45775H7.875C4.23667 2.45775 1.21292 5.11275 0.622917 8.60358C0.611427 8.64954 0.598595 8.6955 0.585675 8.74177C0.543308 8.89351 0.5 9.04862 0.5 9.21817V46.7078C0.5 50.764 3.81875 54.0828 7.875 54.0828H49.6667C52.3708 54.0828 54.5833 51.8703 54.5833 49.1661V44.2494H48.4375C42.3408 44.2494 37.375 39.2836 37.375 33.1869C37.375 27.0903 42.3408 22.1244 48.4375 22.1244H54.5833V17.2078C54.5833 14.5036 52.3708 12.2911 49.6667 12.2911H7.875ZM47.2083 7.37442C47.2083 4.8915 45.3646 2.8265 42.9554 2.50692L47.2083 9.83275V7.37442ZM48.4375 25.812H57.6562C58.674 25.812 59.5 26.638 59.5 27.6557V38.7182C59.5 39.736 58.674 40.562 57.6562 40.562H48.4375C44.3714 40.562 41.0625 37.253 41.0625 33.187C41.0625 29.1209 44.3714 25.812 48.4375 25.812ZM45.9792 33.187C45.9792 34.544 47.0805 35.6453 48.4375 35.6453C49.7945 35.6453 50.8958 34.544 50.8958 33.187C50.8958 31.83 49.7945 30.7286 48.4375 30.7286C47.0805 30.7286 45.9792 31.83 45.9792 33.187Z"
    fill="white" />
</svg>