<svg width="104" height="108" viewBox="0 0 104 108" fill="none" xmlns="http://www.w3.org/2000/svg">
<path d="M17.5387 34.1297C16.3668 33.4531 15.6294 33.0273 15.6294 33.0273" stroke="url(#paint0_linear_1418_8026)" stroke-width="0.811896" stroke-linecap="square"/>
<path d="M17.5387 73.8247C16.3668 74.5013 15.6294 74.927 15.6294 74.927" stroke="url(#paint1_linear_1418_8026)" stroke-width="0.811896" stroke-linecap="square"/>
<path d="M51.916 93.6723C51.916 95.0255 51.916 95.877 51.916 95.877" stroke="url(#paint2_linear_1418_8026)" stroke-width="0.811896" stroke-linecap="square"/>
<path d="M86.2928 73.8247C87.4648 74.5013 88.2021 74.927 88.2021 74.927" stroke="url(#paint3_linear_1418_8026)" stroke-width="0.811896" stroke-linecap="square"/>
<path d="M86.2928 34.1297C87.4648 33.4531 88.2021 33.0273 88.2021 33.0273" stroke="url(#paint4_linear_1418_8026)" stroke-width="0.811896" stroke-linecap="square"/>
<path d="M51.916 14.2821C51.916 12.9288 51.916 12.0774 51.916 12.0774" stroke="url(#paint5_linear_1418_8026)" stroke-width="0.811896" stroke-linecap="square"/>
<path d="M35.8599 26.0444C33.8001 22.4767 31.7933 19.0008 31.2153 17.9998" stroke="url(#paint6_linear_1418_8026)" stroke-width="0.811896" stroke-linecap="square"/>
<path d="M19.7198 53.9998C15.6002 53.9998 11.5865 53.9998 10.4307 53.9998" stroke="url(#paint7_linear_1418_8026)" stroke-width="0.811896" stroke-linecap="square"/>
<path d="M35.8594 81.9551C33.7996 85.5228 31.7928 88.9988 31.2148 89.9998" stroke="url(#paint8_linear_1418_8026)" stroke-width="0.811896" stroke-linecap="square"/>
<path d="M68.1401 81.9551C70.1999 85.5228 72.2067 88.9988 72.7847 89.9998" stroke="url(#paint9_linear_1418_8026)" stroke-width="0.811896" stroke-linecap="square"/>
<path d="M84.2797 53.9998C88.3994 53.9998 92.413 53.9998 93.5688 53.9998" stroke="url(#paint10_linear_1418_8026)" stroke-width="0.811896" stroke-linecap="square"/>
<path d="M68.1396 26.0444C70.1994 22.4767 72.2062 19.0008 72.7842 17.9998" stroke="url(#paint11_linear_1418_8026)" stroke-width="0.811896" stroke-linecap="square"/>
<g filter="url(#filter0_d_1418_8026)">
<path d="M77.3773 37.9199C77.1136 36.9531 76.2347 36.25 75.2679 36.25H66.391C66.4789 35.1953 66.4789 34.2285 66.391 33.3496C66.391 31.8555 65.1605 30.625 63.5785 30.625H41.1664C39.5843 30.625 38.3539 31.8555 38.3539 33.3496C38.266 34.2285 38.266 35.1953 38.3539 36.25H29.4769C28.5101 36.25 27.6312 36.9531 27.3675 37.9199C27.3675 38.1836 25.6976 45.3906 30.3558 52.2461C33.6078 57.168 39.1449 60.5957 46.7914 62.6172C48.4613 63.0566 49.516 64.5508 49.516 66.2207C49.6039 68.3301 47.846 70 45.7367 70H45.3851C43.0121 70 41.1664 71.9336 41.1664 74.2188C41.1664 75.0098 41.7816 75.625 42.4847 75.625H62.0843C62.8753 75.625 63.4027 75.0098 63.4027 74.2188C63.4027 71.9336 61.4691 70 59.1839 70H58.7445C56.6351 70 54.9652 68.3301 54.9652 66.2207C54.9652 64.5508 56.1078 63.0566 57.6898 62.6172C65.3363 60.5957 70.8734 57.168 74.2132 52.2461C79.0472 45.3906 77.3773 38.1836 77.3773 37.9199ZM33.8714 49.9609C31.4105 46.3574 31.2347 42.5781 31.3226 40.4688H38.3539C38.8812 45.7422 40.1996 52.0703 43.4515 57.168C39.1449 55.4102 35.8929 53.0371 33.8714 49.9609ZM70.8734 49.9609C68.8519 53.0371 65.6 55.4102 61.2933 57.168C64.5453 52.0703 65.8636 45.7422 66.391 40.4688H73.4222C73.5101 42.5781 73.3343 46.3574 70.8734 49.9609Z" fill="white"/>
</g>
<defs>
<filter id="filter0_d_1418_8026" x="17.5788" y="22.506" width="69.5875" height="61.2379" filterUnits="userSpaceOnUse" color-interpolation-filters="sRGB">
<feFlood flood-opacity="0" result="BackgroundImageFix"/>
<feColorMatrix in="SourceAlpha" type="matrix" values="0 0 0 0 0 0 0 0 0 0 0 0 0 0 0 0 0 0 127 0" result="hardAlpha"/>
<feOffset/>
<feGaussianBlur stdDeviation="4.05948"/>
<feComposite in2="hardAlpha" operator="out"/>
<feColorMatrix type="matrix" values="0 0 0 0 0 0 0 0 0 0.779167 0 0 0 0 0.545416 0 0 0 0.6 0"/>
<feBlend mode="normal" in2="BackgroundImageFix" result="effect1_dropShadow_1418_8026"/>
<feBlend mode="normal" in="SourceGraphic" in2="effect1_dropShadow_1418_8026" result="shape"/>
</filter>
<linearGradient id="paint0_linear_1418_8026" x1="16.5841" y1="33.5785" x2="17.0683" y2="32.723" gradientUnits="userSpaceOnUse">
<stop stop-color="#00C78B"/>
<stop offset="1" stop-color="#00CDDA"/>
</linearGradient>
<linearGradient id="paint1_linear_1418_8026" x1="16.5841" y1="74.3758" x2="16.0853" y2="73.5287" gradientUnits="userSpaceOnUse">
<stop stop-color="#00C78B"/>
<stop offset="1" stop-color="#00CDDA"/>
</linearGradient>
<linearGradient id="paint2_linear_1418_8026" x1="51.916" y1="94.7746" x2="50.933" y2="94.783" gradientUnits="userSpaceOnUse">
<stop stop-color="#00C78B"/>
<stop offset="1" stop-color="#00CDDA"/>
</linearGradient>
<linearGradient id="paint3_linear_1418_8026" x1="87.2475" y1="74.3758" x2="86.7633" y2="75.2313" gradientUnits="userSpaceOnUse">
<stop stop-color="#00C78B"/>
<stop offset="1" stop-color="#00CDDA"/>
</linearGradient>
<linearGradient id="paint4_linear_1418_8026" x1="87.2475" y1="33.5785" x2="87.7462" y2="34.4256" gradientUnits="userSpaceOnUse">
<stop stop-color="#00C78B"/>
<stop offset="1" stop-color="#00CDDA"/>
</linearGradient>
<linearGradient id="paint5_linear_1418_8026" x1="51.916" y1="13.1797" x2="52.899" y2="13.1714" gradientUnits="userSpaceOnUse">
<stop stop-color="#00C78B"/>
<stop offset="1" stop-color="#00CDDA"/>
</linearGradient>
<linearGradient id="paint6_linear_1418_8026" x1="33.5376" y1="22.0221" x2="34.388" y2="21.5288" gradientUnits="userSpaceOnUse">
<stop stop-color="#00C78B"/>
<stop offset="1" stop-color="#00CDDA"/>
</linearGradient>
<linearGradient id="paint7_linear_1418_8026" x1="15.0752" y1="53.9998" x2="15.0732" y2="53.0167" gradientUnits="userSpaceOnUse">
<stop stop-color="#00C78B"/>
<stop offset="1" stop-color="#00CDDA"/>
</linearGradient>
<linearGradient id="paint8_linear_1418_8026" x1="33.5371" y1="85.9774" x2="32.6848" y2="85.4876" gradientUnits="userSpaceOnUse">
<stop stop-color="#00C78B"/>
<stop offset="1" stop-color="#00CDDA"/>
</linearGradient>
<linearGradient id="paint9_linear_1418_8026" x1="70.4624" y1="85.9774" x2="69.612" y2="86.4707" gradientUnits="userSpaceOnUse">
<stop stop-color="#00C78B"/>
<stop offset="1" stop-color="#00CDDA"/>
</linearGradient>
<linearGradient id="paint10_linear_1418_8026" x1="88.9243" y1="53.9998" x2="88.9263" y2="54.9828" gradientUnits="userSpaceOnUse">
<stop stop-color="#00C78B"/>
<stop offset="1" stop-color="#00CDDA"/>
</linearGradient>
<linearGradient id="paint11_linear_1418_8026" x1="70.4619" y1="22.0221" x2="71.3142" y2="22.5119" gradientUnits="userSpaceOnUse">
<stop stop-color="#00C78B"/>
<stop offset="1" stop-color="#00CDDA"/>
</linearGradient>
</defs>
</svg>
